<!-- by TradingView --><svg xmlns="http://www.w3.org/2000/svg" viewBox="0 0 18 18" viewBox="0 0 18 18"><path fill="#194390" d="M0 0h18v18H0z"/><path d="M10 11.5V6.08c.33-.14 1.06-.2 1.33.68l1.16 3.31 1.15-3.31c.13-.36.46-.97 1.36-.68v5.42h-.75V7.54l-1.46 3.96h-.63l-1.41-3.96v3.96H10zM3.75 6.75A.75.75 0 0 0 3 6v5.5h.75v-.58c.3.36.7.58 1.15.58.88 0 1.6-.86 1.6-1.93 0-1.06-.72-1.92-1.6-1.92-.45 0-.86.22-1.15.58V6.75zm2 2.82c0 .67-.45 1.22-1 1.22s-1-.55-1-1.22c0-.66.45-1.2 1-1.2s1 .54 1 1.2zm2-1.27A.75.75 0 0 0 7 7.65v3.85h.75V9.48c.11-.51.44-1.12 1.16-1l.09-.8c-.27-.08-.88-.07-1.26.62z" fill="#fff"/></svg>