<!-- by TradingView --><svg viewBox="0 0 18 18" fill="none" xmlns="http://www.w3.org/2000/svg"><path fill="#015E70" d="M0 0h18v18H0z"/><path d="M9 12H7.947c0-.13-.052-.317-.144-.563-.092-.245-.285-.704-.47-1.151h-1.79l-.306.805c-.096.288-.263.597-.263.909H4c.282-.155.456-.743.566-1.024L6.513 6l2.026 5.048c.07.23.328.815.461.952ZM6.5 8.005l-.671 1.603h1.355L6.5 8.005ZM11.206 11.143c.45 0 .794-.25.794-.857 0-1.05-2-.654-2-2.653C10 6.467 11.023 6 11.83 6c.393 0 .791.074 1.17.188l-.014 1.116c-.235-.33-.644-.447-1.005-.447-.406 0-.981.145-.981.704 0 1.332 2 .782 2 2.725C13 11.35 12.212 12 11.356 12c-.45 0-.951-.08-1.356-.317V10.6c.09.477.869.542 1.206.542Z" fill="#F0F3FA"/></svg>