<!-- by TradingView --><svg xmlns="http://www.w3.org/2000/svg" viewBox="0 0 18 18"><path d="M0 9a9 9 0 1118 0A9 9 0 010 9z" fill="#BE2E48"/><path d="M7 6a1 1 0 11-2 0 1 1 0 012 0zm5.7.7a1 1 0 11-1.4-1.4 1 1 0 011.4 1.4zM6 10a1 1 0 100-2 1 1 0 000 2zm4.4-.94a1.05 1.05 0 01-1.24 1.04c-.4-.07-.78.3-1.06.6l-.06.05-.17.19-.12.12a2.43 2.43 0 00-.66 1.65 1.05 1.05 0 11-.84-1.08c.5.1 1.08-.35 1.42-.68.08-.08.17-.19.26-.32.22-.34.53-.85.4-1.27a1.05 1.05 0 112.06-.3zm1.04.1a1 1 0 10.72-.96c-.4.12-.9-.18-1.22-.39a1.8 1.8 0 01-.3-.24c-.32-.33-.75-.88-.66-1.36A1.01 1.01 0 009 5a1 1 0 00-.03 2 2.33 2.33 0 011.68.75l.17.16.06.06c.27.26.64.62.57 1l-.01.19z" fill="#fff"/></svg>