<!-- by TradingView --><svg viewBox="0 0 18 18" viewBox="0 0 18 18" xmlns="http://www.w3.org/2000/svg"><path fill="#F9E6B3" d="M0 0h18v18H0z"/><path d="M12.71 8.07c.44-.04 2.14.46 2.28 1.1.13.6-1.25 1.55-1.11 1.93.09.24.5.12.78.12.51 0 .1.81-1.15.78-.65-.02-1.33-.09-1.36-.67-.04-.78 1.49-1.48 1.3-1.8-.08-.13-.4-.12-.76-.13-.99-.03-.6-1.27 0-1.32" fill="#175EA8"/><path d="M10.57 7.76c-.43.34-.65 1.5-.7 2.12-.06.77.15 1.83 1.17 2.08.88.21 1.19-.28.83-.47-.51-.26-.65-.66-.63-1.16 0-.18.05-.32.2-.3.36.01.73-.04.72-.54-.01-.32-.52-.08-.64-.27-.12-.18.4-.82.23-1.15-.12-.23-.91-.5-1.17-.3M5.66 9.9c.3-.07.55-.15.76-.24h.01c.13-.7.63-1.33 1.35-1.58a1.98 1.98 0 0 0-.97-2.2c-.5-.3-1.14-.4-1.84-.27-1.65.33-2.4 1.98-1.73 4.01.51 1.54 1.71 2.61 2.26 2.33.68-.34-1.39-1.68.16-2.05Z" fill="#175EA8"/><path d="M8.26 10.77c.12.02.36.04.55.03.43-.02.76-.2.97-.48-.05-.46 0-.94.09-1.38-.15-.26-.4-.5-.76-.65a1.93 1.93 0 0 0-2.61 1.97c.1.92.68 1.32.93 1.47.35.22.85.32 1.33.27.45-.06.67-.23.75-.33.14-.16.12-.3.07-.39-.08-.1-.19-.07-.38-.03-.48.1-.75-.06-.86-.15-.2-.17-.2-.34-.06-.32" fill="#175EA8"/></svg>