<!-- by TradingView --><svg viewBox="0 0 18 18" fill="none" xmlns="http://www.w3.org/2000/svg"><path fill="#E40001" d="M0 0h18v18H0z"/><path fill-rule="evenodd" clip-rule="evenodd" d="M9 9h1v4.5s-1.121.5-2.566.5C5.964 14 3 13.327 3 9.288S6.637 5 7.41 5c.771 0 2.092.175 2.59.324 0 0-.025.726-.224 1.025 0 0-.997-.349-2.267-.349S4 6.87 4 9.488C4 12.105 6.214 13 7.285 13 8.726 13 9 12.5 9 12.5V9Z" fill="#F0F3FA"/><path fill="#F0F3FA" d="M11 5h1v1h-1zM11 6.5h1v1h-1zM11 8h1v1h-1zM12.499 5h1v1h-1zM12.499 6.5h1v1h-1zM12.499 8h1v1h-1zM14 5h1v1h-1zM14 6.5h1v1h-1zM14 8h1v1h-1z"/></svg>