<!-- by TradingView --><svg xmlns="http://www.w3.org/2000/svg" viewBox="0 0 18 18"><path fill="url(#avmqid5k1)" d="M0 0h18v18H0z"/><path d="M5.47 9.89l2.35-2.73V9.3L5.3 12.25a.92.92 0 01-.52.25c-.54.03-.77-.41-.77-.73V7.36c0-.23.22-.71.74-.71s.73.48.73.71v2.53z" fill="url(#bvmqid5k1)"/><path d="M12.53 9.26l-2.35 2.72V9.84L12.7 6.9a.92.92 0 01.52-.25c.54-.03.77.4.77.73v4.4c0 .24-.22.72-.74.72s-.73-.49-.73-.71V9.26z" fill="url(#cvmqid5k1)"/><path d="M9 6.45c.4 0 .74-.32.74-.72a.734.734 0 00-1.47 0c0 .4.32.72.73.72zm0 .2c-.4 0-.73.33-.73.73v4.38a.74.74 0 101.47 0V7.38c0-.4-.33-.73-.74-.73z" fill="url(#dvmqid5k1)"/><defs><linearGradient id="avmqid5k1" x1="3.35" y1="3.12" x2="21.9" y2="24.43" gradientUnits="userSpaceOnUse"><stop stop-color="#1A1E21"/><stop offset="1" stop-color="#06060A"/></linearGradient><linearGradient id="bvmqid5k1" x1="6.78" y1="6.93" x2="4.05" y2="12.38" gradientUnits="userSpaceOnUse"><stop offset=".08" stop-color="#FA7DAA"/><stop offset="1" stop-color="#EF3177"/></linearGradient><linearGradient id="cvmqid5k1" x1="11.39" y1="12.29" x2="13.77" y2="6.74" gradientUnits="userSpaceOnUse"><stop stop-color="#F85792"/><stop offset="1" stop-color="#FDAECB"/></linearGradient><linearGradient id="dvmqid5k1" x1="9.02" y1="5.05" x2="9.02" y2="12.46" gradientUnits="userSpaceOnUse"><stop stop-color="#fff"/><stop offset="1" stop-color="#C0C1C3"/></linearGradient></defs></svg>