<svg version="1.1" id="Layer_1" xmlns="http://www.w3.org/2000/svg" xmlns:xlink="http://www.w3.org/1999/xlink" x="0px" y="0px"
	 viewBox="0 0 20 24" style="enable-background:new 0 0 20 24;" xml:space="preserve" fill="currentColor">
<style type="text/css">
	.st0{fill-rule:evenodd;clip-rule:evenodd;}
</style>
<path class="st0" d="M10,0C4.5,0,0,4.4,0,9.8c0,5.5,4.4,9.3,10,14.2c5.6-4.9,10-8.7,10-14.2C20,4.4,15.5,0,10,0z M10,18
	c-4.4,0-8-3.6-8-8s3.6-8,8-8s8,3.6,8,8S14.4,18,10,18z M6.4,10.8l2.8-1.4L6.3,6.9l0.9-0.4l4.7,1.6L14.2,7c0.6-0.3,1.6-0.2,1.8,0.2
	C16,7.3,16,7.3,16,7.4c0,0.5-0.5,1.1-1,1.3l-2.2,1.1l-1.6,4.7L10.3,15l-0.2-3.8l-2.8,1.4L6.7,14l-0.6,0.3l-0.2-2.1l-1.6-1.5l0.6-0.3
	C4.9,10.4,6.4,10.8,6.4,10.8z"/>
</svg>
