<?xml version="1.0" encoding="utf-8"?>
<!-- Generator: Adobe Illustrator 24.1.2, SVG Export Plug-In . SVG Version: 6.00 Build 0)  -->
<svg version="1.1" id="Layer_1" xmlns="http://www.w3.org/2000/svg" xmlns:xlink="http://www.w3.org/1999/xlink" x="0px" y="0px"
	 viewBox="0 0 463.6 596.9" style="enable-background:new 0 0 463.6 596.9;" xml:space="preserve">
<path style="fill:none;stroke:#000000;stroke-width:20;stroke-miterlimit:10;" d="M98,178c0-8.8,7.2-16,16-16h48c8.8,0,16,7.2,16,16
	v48c0,8.8-7.2,16-16,16h-48c-8.8,0-16-7.2-16-16V178z M290,162c8.8,0,16,7.2,16,16v48c0,8.8-7.2,16-16,16h-48c-8.8,0-16-7.2-16-16
	v-48c0-8.8,7.2-16,16-16H290z M98,306c0-8.8,7.2-16,16-16h48c8.8,0,16,7.2,16,16v48c0,8.8-7.2,16-16,16h-48c-8.8,0-16-7.2-16-16V306
	z M290,290c8.8,0,16,7.2,16,16v48c0,8.8-7.2,16-16,16h-48c-8.8,0-16-7.2-16-16v-48c0-8.8,7.2-16,16-16H290z M10,138
	c0-35.4,28.7-64,64-64h256c35.3,0,64,28.7,64,64v384c0,35.3-28.7,64-64,64H74c-35.3,0-64-28.7-64-64V138z M159.6,586v-75.5
	c0-19.3,15.6-34.9,34.6-34.9h23.1c21.5,0,38.7,17.2,38.7,38.5V586"/>
<polygon style="fill:#FFCE35;" points="463.6,95.1 410.3,117.2 398.3,173.5 360.9,129.7 303.6,135.8 333.7,86.6 310.2,34 
	366.3,47.4 409.1,8.8 413.7,66.3 "/>
</svg>
