<svg version="1.1" viewBox="0 0 56.428 53.937" xmlns="http://www.w3.org/2000/svg">
 <g fill="none" stroke-width="4.4">
  <path d="m54.228 24.683v-7.4018a1.9632 1.9632 45 0 0-1.9632-1.9632h-48.065a2 2 135 0 0-2 2v32.419a2 2 45 0 0 2 2h47.924a2 2 135 0 0 2-2v-14.314a2 2 45 0 0-2-2h-24.014"/>
  <path d="m2.2 17.01 3.4412-12.878a2.6046 2.6046 142.48 0 1 2.5163-1.9322h40.037a2.6181 2.6181 37.376 0 1 2.526 1.9296l3.4708 12.733"/>
  <path d="m28.084 2.4943v12.803"/>
 </g>
 <path d="m37.92 25.84-9.5001 6.1156a1.9404 1.9404 90.124 0 0-7e-3 3.2586l9.3772 6.0938a1.6192 1.6192 151.38 0 0 2.5015-1.3653l-0.01126-2.4219a2.0155 2.0155 90.107 0 1 0.0056-2.998l0.11102-7.307a1.6072 1.6072 29.05 0 0-2.477-1.3758z" stroke-width="4.4"/>
 <rect x="38.577" y="32.802" width="1.7036" height="5.625" stroke-linejoin="round" stroke-width="4.4"/>
</svg>
