<?xml version="1.0" encoding="utf-8"?>
<!-- Generator: Adobe Illustrator 24.1.2, SVG Export Plug-In . SVG Version: 6.00 Build 0)  -->
<svg version="1.1" id="Layer_1" xmlns="http://www.w3.org/2000/svg" xmlns:xlink="http://www.w3.org/1999/xlink" x="0px" y="0px"
	 viewBox="0 0 563 548.8" style="enable-background:new 0 0 563 548.8;" xml:space="preserve">
<style type="text/css">
	.st0{fill:none;stroke:#000000;stroke-width:35;stroke-linejoin:round;stroke-miterlimit:10;}
</style>
<path class="st0" d="M201.8,19.5c30.9,0,56,25.1,56,56v400c0,30.9-25.1,56-56,56c-28.9,0-52.7-21.9-55.7-50.1
	c-5.2,1.4-10.7,2.1-16.3,2.1c-35.3,0-64-28.7-64-64c0-7.4,1.3-14.6,3.6-21.2c-30.2-11.4-51.6-40.6-51.6-74.8
	c0-31.9,18.7-59.5,45.8-72.3c-8.7-10.9-13.8-24.7-13.8-39.7c0-30.7,21.6-56.3,50.4-62.6c-1.6-5.5-2.4-11.4-2.4-17.4
	c0-29.9,20.6-55.1,48.3-62.1C149.1,41.4,172.9,19.5,201.8,19.5z"/>
<path class="st0" d="M416.4,68.4c27.7,7,48.3,32.2,48.3,62.1c0,6-0.8,11.9-2.4,17.4c28.8,6.3,50.4,31.9,50.4,62.6
	c0,15-5.1,28.8-13.8,39.7c27.1,12.8,45.8,40.4,45.8,72.3c0,34.2-21.4,63.4-51.6,74.8c2.3,6.6,3.6,13.8,3.6,21.2
	c0,35.3-28.7,64-64,64c-5.6,0-11.1-0.7-16.3-2.1c-3,28.2-26.8,50.1-55.7,50.1c-30.9,0-56-25.1-56-56v-400c0-30.9,25.1-56,56-56
	C389.6,18.5,413.4,40.4,416.4,68.4z"/>
</svg>
