<svg width="214.18mm" height="165mm" version="1.1" viewBox="0 0 214.18 165" xmlns="http://www.w3.org/2000/svg">
 <g transform="translate(93.16 -15.851)">
  <g fill-opacity=".2545" stroke-width="0">
   <path d="m91.725 39.285c3.2357 0 5.8586 2.6229 5.8586 5.8586 0 3.2353-2.6229 5.8582-5.8586 5.8582v23.434c16.178 0 29.293-13.115 29.293-29.292s-13.115-29.293-29.293-29.293z"/>
   <path d="m-63.868 122.27c-16.111 0.0783-29.149 13.156-29.149 29.285 0 16.177 13.114 29.292 29.292 29.292v-23.434c-3.2357 0-5.8586-2.6229-5.8586-5.8582 0-3.236 2.6229-5.8586 5.8586-5.8586h77.236v-23.434h-77.379z"/>
   <path d="m-93.16 80.294c0 16.178 13.115 29.292 29.293 29.292h77.379v-23.434h-77.379c-3.236 0-5.8586-2.6229-5.8586-5.8586 0-3.2353 2.6226-5.8582 5.8586-5.8582v-23.434c-16.178 0-29.293 13.115-29.293 29.292"/>
  </g>
  <g fill="#3e3a69">
   <path d="m92.254 15.851v23.434h-156.25v-16.788c0-3.6703 2.9753-6.646 6.646-6.646z"/>
   <path d="m92.254 51.002v23.434h-156.25v-23.434z"/>
   <path d="m92.254 157.41v16.326c0 3.9257-3.1824 7.1081-7.1081 7.1081h-149.14v-23.434z"/>
   <path d="m12.982 91.137v18.45h55.439v12.676h-55.439v23.434h65.655c7.2274 0 13.087-5.8596 13.087-13.087v-36.753c0-5.359-4.3445-9.7028-9.7032-9.7028h-69.039z"/>
  </g>
 </g>
</svg>
