<svg xmlns="http://www.w3.org/2000/svg" xmlns:xlink="http://www.w3.org/1999/xlink" x="0px" y="0px" fill="currentColor" viewBox="0 0 512 448" style="enable-background:new 0 0 512 448;" xml:space="preserve">
<path d="M64,32C64,14.3,49.7,0,32,0S0,14.3,0,32v336c0,44.2,35.8,80,80,80h400c17.7,0,32-14.3,32-32s-14.3-32-32-32H80
	c-8.8,0-16-7.2-16-16V32z M470.6,118.6c12.5-12.5,12.5-32.8,0-45.3s-32.8-12.5-45.3,0L320,178.7l-57.4-57.4
	c-12.5-12.5-32.8-12.5-45.3,0l-112,112c-12.5,12.5-12.5,32.8,0,45.3s32.8,12.5,45.3,0l89.4-89.3l57.4,57.4
	c12.5,12.5,32.8,12.5,45.3,0l128-128L470.6,118.6z"/>
</svg>
