<svg version="1.1" xmlns="http://www.w3.org/2000/svg" xmlns:xlink="http://www.w3.org/1999/xlink" x="0px" y="0px" fill="currentColor" viewBox="0 0 448 512" style="enable-background:new 0 0 448 512;" xml:space="preserve">
  <path d="M160,80c0-26.5,21.5-48,48-48h32c26.5,0,48,21.5,48,48v352c0,26.5-21.5,48-48,48h-32c-26.5,0-48-21.5-48-48V80z"/>
  <path d="M0,272c0-26.5,21.5-48,48-48h32c26.5,0,48,21.5,48,48v160c0,26.5-21.5,48-48,48H48c-26.5,0-48-21.5-48-48V272z"/>
  <path d="M368,96h32c26.5,0,48,21.5,48,48v288c0,26.5-21.5,48-48,48h-32c-26.5,0-48-21.5-48-48V144C320,117.5,341.5,96,368,96z"/>
</svg>
