<svg version="1.1" id="Layer_1" xmlns="http://www.w3.org/2000/svg" xmlns:xlink="http://www.w3.org/1999/xlink" x="0px" y="0px"
	 viewBox="0 0 30.8 33.1" style="enable-background:new 0 0 30.8 33.1;" xml:space="preserve" fill="currentColor" stroke="curentColor">
<style type="text/css">
	.st0{fill:none;stroke:currentColor;stroke-width:4;stroke-linecap:round;stroke-miterlimit:10;}
	.st1{fill:none;stroke:currentColor;stroke-width:3;stroke-linecap:round;stroke-miterlimit:10;}
</style>
<path d="M6.2,24.8h18.5v6.4c0,1.1-0.9,1.9-1.9,1.9H8.2c-1.1,0-2-0.9-2-2V24.8z"/>
<line class="st0" x1="2.1" y1="22.9" x2="28.8" y2="22.9"/>
<path class="st0" d="M24.2,22.9l3.5-11.5c0.1-0.4-0.2-0.8-0.6-0.8H15.4"/>
<path class="st0" d="M6.7,22.9L3.2,11.4c-0.1-0.4,0.2-0.8,0.6-0.8h11.6"/>
<g>
	<path d="M19.6,8.6v14.2h-8.2V8.6H19.6 M19.9,6.6H11c-0.9,0-1.7,0.8-1.7,1.7v14.9c0,0.9,0.8,1.7,1.7,1.7h8.9c0.9,0,1.7-0.8,1.7-1.7
		V8.3C21.6,7.3,20.8,6.6,19.9,6.6L19.9,6.6z"/>
</g>
<line class="st1" x1="15.4" y1="1.9" x2="15.4" y2="6.6"/>
<line class="st1" x1="11.5" y1="1.6" x2="19.4" y2="1.6"/>
</svg>
