<svg xmlns="http://www.w3.org/2000/svg" width="15.311" height="17.714" viewBox="0 0 15.311 17.714">
  <path id="filter" d="M4.024.805V8.157a3.221,3.221,0,0,1,0,6.24v2.512a.805.805,0,0,1-1.61,0V14.4a3.221,3.221,0,0,1,0-6.24V.805a.805.805,0,0,1,1.61,0ZM1.609,11.273a1.61,1.61,0,1,1,1.61,1.61A1.61,1.61,0,0,1,1.609,11.273Zm9.662-7.955V.805a.805.805,0,0,1,1.61,0V3.317a3.221,3.221,0,0,1,0,6.24v7.351a.805.805,0,1,1-1.61,0V9.558a3.221,3.221,0,0,1,0-6.24Zm.805,4.735a1.61,1.61,0,1,0-1.61-1.61A1.61,1.61,0,0,0,12.076,8.052Z" transform="translate(0.008)" fill="currentColor" fill-rule="evenodd"/>
</svg>
