<?xml version="1.0" encoding="utf-8"?>
<!-- Generator: Adobe Illustrator 24.1.2, SVG Export Plug-In . SVG Version: 6.00 Build 0)  -->
<svg version="1.1" id="Layer_1" xmlns="http://www.w3.org/2000/svg" xmlns:xlink="http://www.w3.org/1999/xlink" x="0px" y="0px"
	 viewBox="0 0 18 18" style="enable-background:new 0 0 18 18;" xml:space="preserve">
<path d="M1,10h6c0.6,0,1-0.4,1-1V1c0-0.6-0.4-1-1-1H1C0.4,0,0,0.4,0,1v8C0,9.6,0.4,10,1,10z M0,17c0,0.6,0.4,1,1,1h6
	c0.6,0,1-0.4,1-1v-4c0-0.6-0.4-1-1-1H1c-0.6,0-1,0.4-1,1V17z M10,17c0,0.6,0.4,1,1,1h6c0.6,0,1-0.4,1-1v-7c0-0.6-0.4-1-1-1h-6
	c-0.6,0-1,0.4-1,1V17z M11,7h6c0.6,0,1-0.4,1-1V1c0-0.6-0.4-1-1-1h-6c-0.6,0-1,0.4-1,1v5C10,6.6,10.4,7,11,7z"/>
</svg>
