<svg version="1.1" id="Layer_1" xmlns="http://www.w3.org/2000/svg" xmlns:xlink="http://www.w3.org/1999/xlink" x="0px" y="0px"
	 viewBox="0 0 287.1 251.8" style="enable-background:new 0 0 287.1 251.8;" fill="currentColor" xml:space="preserve">
<path d="M142.4,113c-22.8,0-22.8-8.1-22.8-12.9c0-4.8,8-12.9,22.8-12.9c14.8,0,15.9,8.3,16,12.9h22.8c-0.3-18.1-11.7-33.5-27.4-37.2
	V48.5H131v14.1c-22.8,4.3-34.2,20.9-34.2,37.6c0,14.5,5.9,38.7,45.6,38.7c22.8,0,22.8,8.8,22.8,12.9c0,4.1-7.1,12.9-22.8,12.9
	c-21,0-22.8-11.1-22.8-12.9H96.7c0,11.9,7.5,32.9,34.2,37.7v13.9h22.8v-13.9c22.8-4.4,34.2-21,34.2-37.7
	C188,137.2,182,113,142.4,113z"/>
<path d="M287,32.5C286.4,12.1,266.3-0.1,250.5,0C196.7,0.3,67.4,0,35.2,0C10.6,0,0,17.8,0.1,34.1c0.1,23.8,0,90.8,0,90.8
	s-0.2,72.7,0,96.3c-0.1,15.2,11.3,29,29.3,29.6c60,2,207.7,0,229.3,0c15.1,0,28.6-14,28.4-30.9C286.4,173.3,287.3,64.6,287,32.5z
	 M225,125.9c0,4.5-0.4,8.9-1.1,13.1H253v89H31.5v-89h31.6c-0.7-4.3-1.1-8.7-1.1-13.1c0-3.3,0.2-6.5,0.6-9.6l-31.1,0.1V20.8h220
	l1.6,94.6l-28.8,0.1C224.8,119,225,122.4,225,125.9z"/>
</svg>
