<svg fill="currentColor" xmlns="http://www.w3.org/2000/svg" viewBox="0 0 320 812">
<path d="M318,334.5c3.8,8.8,2,19-4.6,26l-136,144c-4.5,4.8-10.8,7.5-17.4,7.5s-12.9-2.7-17.4-7.5l-136-144c-6.6-7-8.4-17.2-4.6-26
	S14.4,320,24,320h88V32c0-17.7,14.3-32,32-32h32c17.7,0,32,14.3,32,32v288h88C305.6,320,314.2,325.7,318,334.5z"/>
<g>
	<path d="M158.8,555.9c24.3,0,43.2,8.7,56.9,26c16.3,20.5,24.4,54.5,24.4,102c0,47.4-8.2,81.5-24.6,102.2
		c-13.6,17.1-32.5,25.6-56.7,25.6c-24.4,0-44-9.4-59-28.1C85,764.9,77.5,731.5,77.5,683.4c0-47.2,8.2-81.1,24.6-101.9
		C115.7,564.5,134.6,555.9,158.8,555.9z M158.8,595.8c-5.8,0-11,1.9-15.6,5.6c-4.6,3.7-8.1,10.3-10.6,19.9c-3.3,12.4-5,33.3-5,62.7
		s1.5,49.6,4.4,60.6c3,11,6.7,18.3,11.2,22c4.5,3.6,9.7,5.5,15.5,5.5c5.8,0,11-1.9,15.6-5.6c4.6-3.7,8.1-10.3,10.6-19.9
		c3.3-12.3,5-33.2,5-62.5s-1.5-49.6-4.4-60.6c-3-11-6.7-18.3-11.2-22C169.8,597.6,164.6,595.8,158.8,595.8z"/>
</g>
</svg>
