<?xml version="1.0" encoding="utf-8"?>
<!-- Generator: Adobe Illustrator 24.1.2, SVG Export Plug-In . SVG Version: 6.00 Build 0)  -->
<svg version="1.1" id="Layer_1" xmlns="http://www.w3.org/2000/svg" xmlns:xlink="http://www.w3.org/1999/xlink" x="0px" y="0px"
	 viewBox="0 0 1283 1114.2" enable-background="new 0 0 1283 1114.2" xml:space="preserve">
<path d="M32,0c17.7,0,32,14.3,32,32v256h224V128c0-17.7,14.3-32,32-32h224c53,0,96,43,96,96v224c0,17.7-14.3,32-32,32
	s-32-14.3-32-32v-32H352h-32H64v32c0,17.7-14.3,32-32,32S0,433.7,0,416V32C0,14.3,14.3,0,32,0z M176,256c-44.2,0-80-35.8-80-80
	s35.8-80,80-80s80,35.8,80,80S220.2,256,176,256z"/>
<path d="M994.3,607.6c7.8-7.3,19.9-7.2,27.7,0.1c27.6,25.9,53.5,53.8,77.7,84c11-14.4,23.5-30.1,37-42.9c7.9-7.4,20.1-7.4,28,0.1
	c34.6,33,63.9,76.6,84.5,118c20.3,40.8,33.8,82.5,33.8,111.9c0,127.6-99.8,235.4-224,235.4c-125.6,0-224-107.9-224-235.5
	c0-38.4,17.8-85.3,45.4-131.7C908.3,699.9,947.7,650.8,994.3,607.6z M1060.7,1018.2c25.3,0,47.7-7,68.8-21
	c42.1-29.4,53.4-88.2,28.1-134.4c-2.8-5.6-5.6-11.2-9.8-16.8l-50.6,58.8c0,0-81.4-103.6-87.1-110.6C968.1,846,947,875.4,947,909
	C947,977.6,997.6,1018.2,1060.7,1018.2z"/>
<line stroke="#000000" stroke-width="36" stroke-linecap="round" stroke-miterlimit="10" x1="1059" y1="224" x2="320" y2="906.2"/>
</svg>
