<?xml version="1.0" encoding="utf-8"?>
<!-- Generator: Adobe Illustrator 24.1.2, SVG Export Plug-In . SVG Version: 6.00 Build 0)  -->
<svg version="1.1" id="Layer_1" xmlns="http://www.w3.org/2000/svg" xmlns:xlink="http://www.w3.org/1999/xlink" x="0px" y="0px"
	 viewBox="0 0 18 20" style="enable-background:new 0 0 18 20;" xml:space="preserve">
<path d="M9,0C4,0,0,4,0,9v8h0.1c0.2,1.7,1.7,3,3.4,3c1.2,0,2.1-0.4,2.7-1.2c1.6,1.6,4.1,1.6,5.6,0c0,0,0,0,0,0
	c0.6,0.8,1.5,1.2,2.7,1.2c1.9,0,3.5-1.6,3.5-3.5V9C18,4,14,0,9,0z M16,16.5c0,0.8-0.7,1.5-1.5,1.5c-0.4,0-1.5,0-1.5-2v-1h-2v1
	c0,1.1-0.9,2-2,2s-2-0.9-2-2v-1H5v1c0,1.8-0.8,2-1.5,2C2.7,18,2,17.3,2,16.5V9c0-3.9,3.1-7,7-7s7,3.1,7,7V16.5z"/>
<circle cx="6" cy="8" r="2"/>
<circle cx="12" cy="8" r="2"/>
</svg>
