<?xml version="1.0" encoding="utf-8"?>
<!-- Generator: Adobe Illustrator 24.1.2, SVG Export Plug-In . SVG Version: 6.00 Build 0)  -->
<svg version="1.1" id="Layer_1" xmlns="http://www.w3.org/2000/svg" xmlns:xlink="http://www.w3.org/1999/xlink" x="0px" y="0px"
	 viewBox="0 0 18 18" style="enable-background:new 0 0 18 18;" xml:space="preserve">
<path d="M12,0H2C0.9,0,0,0.9,0,2v14c0,1.1,0.9,2,2,2h14c1.1,0,2-0.9,2-2V2c0-1.1-0.9-2-2-2H12z M16,5h-3V2h3V5z M2,7h3v4H2V7z M7,7
	h4v4H7V7z M13,7h3v4h-3V7z M11,2v3H7V2H11z M5,2v3H2V2H5z M2,13h3v3H2V13z M7,16v-3h4v3H7z M13,16v-3h3v3H13z"/>
</svg>
