<?xml version="1.0" encoding="utf-8"?>
<!-- Generator: Adobe Illustrator 24.1.2, SVG Export Plug-In . SVG Version: 6.00 Build 0)  -->
<svg version="1.1" id="Layer_1" xmlns="http://www.w3.org/2000/svg" xmlns:xlink="http://www.w3.org/1999/xlink" x="0px" y="0px"
	 viewBox="0 0 400 192" style="enable-background:new 0 0 400 192;fill:currentColor" xml:space="preserve">
<path d="M387.5,128h-375C5.6,128,0,135.2,0,144v32c0,8.8,5.6,16,12.5,16h375c6.9,0,12.5-7.2,12.5-16v-32
	C400,135.2,394.4,128,387.5,128z M387.5,0h-375C5.6,0,0,7.2,0,16v32c0,8.8,5.6,16,12.5,16h375c6.9,0,12.5-7.2,12.5-16V16
	C400,7.2,394.4,0,387.5,0z"/>
</svg>
