<?xml version="1.0" encoding="utf-8"?>
<!-- Generator: Adobe Illustrator 24.1.2, SVG Export Plug-In . SVG Version: 6.00 Build 0)  -->
<svg version="1.1" id="Layer_1" xmlns="http://www.w3.org/2000/svg" xmlns:xlink="http://www.w3.org/1999/xlink" x="0px" y="0px"
	 viewBox="0 0 111.8 77" style="enable-background:new 0 0 111.8 77;" xml:space="preserve">
<path d="M104,15.7H7.8C3.5,15.7,0,12.2,0,7.8v0C0,3.5,3.5,0,7.8,0H104c4.3,0,7.8,3.5,7.8,7.8v0C111.8,12.2,108.3,15.7,104,15.7z"/>
<path d="M104,77H7.8C3.5,77,0,73.5,0,69.2v0c0-4.3,3.5-7.8,7.8-7.8H104c4.3,0,7.8,3.5,7.8,7.8v0C111.8,73.5,108.3,77,104,77z"/>
<path d="M104,46.3H7.8c-4.3,0-7.8-3.5-7.8-7.8v0c0-4.3,3.5-7.8,7.8-7.8H104c4.3,0,7.8,3.5,7.8,7.8v0C111.8,42.8,108.3,46.3,104,46.3
	z"/>
</svg>
