<svg width="208.73" height="49.27" version="1.1" viewBox="0 0 55.228 13.036" xmlns="http://www.w3.org/2000/svg">
 <g transform="translate(5.7556e-7 .033409)">
  <path transform="matrix(.26458 0 0 .26458 -4.9989e-7 -.033409)" d="m103.51 0v0.0019531l-103.51 0.125c0 1e-8 10.281 7.1698 19.115 17.514 8.8342 10.344 14.518 31.651 25.205 31.629l60.047-0.125 60.047 0.125c10.687 0.02192 16.369-21.285 25.203-31.629 8.8342-10.344 19.117-17.514 19.117-17.514l-103.52-0.125v-0.0019531l-0.85156 0.0019531z" fill="#e3e3e3" stroke-opacity="0"/>
  <path d="m27.532 9.4205-5.5189-5.519c-0.26617-0.26617-0.26617-0.69771 0-0.96385l0.6437-0.6437c0.26572-0.26572 0.69637-0.26623 0.96272-0.00117l4.3945 4.3739 4.3944-4.3739c0.26634-0.26509 0.697-0.26458 0.96272 0.00117l0.6437 0.6437c0.26617 0.26617 0.26617 0.69771 0 0.96385l-5.5189 5.519c-0.26617 0.26615-0.69771 0.26615-0.96388 0z" fill="currentColor" stroke-width=".028398"/>
  <path d="m28.593 2.3028 5.5134 5.5134c0.2659 0.2659 0.2659 0.697 0 0.96288l-0.64304 0.64304c-0.26545 0.26545-0.69567 0.26596-0.96174 0.00113l-4.39-4.3694-4.39 4.3694c-0.26607 0.26483-0.69629 0.26432-0.96174-0.00113l-0.64304-0.64304c-0.2659-0.2659-0.2659-0.697 0-0.96288l5.5134-5.5134c0.26588-0.2659 0.69697-0.2659 0.96288-2.83e-5z" fill="currentColor" stroke-width=".028369"/>
 </g>
</svg>
