<?xml version="1.0" encoding="utf-8"?>
<!-- Generator: Adobe Illustrator 24.1.2, SVG Export Plug-In . SVG Version: 6.00 Build 0)  -->
<svg version="1.1" id="Layer_1" xmlns="http://www.w3.org/2000/svg" xmlns:xlink="http://www.w3.org/1999/xlink" x="0px" y="0px"
	 viewBox="0 0 49.1 208.1" style="enable-background:new 0 0 49.1 208.1;" xml:space="preserve">
<style type="text/css">
	.st0{fill:#E3E3E3;}
</style>
<g transform="translate(5.7556e-7 .033409)">
	<path class="st0" d="M-0.1,104.5L-0.1,104.5L0,208c0,0,7.2-10.3,17.5-19.1c10.3-8.8,31.6-14.5,31.6-25.2l-0.1-60l0.1-60
		c0-10.7-21.3-16.4-31.6-25.2C7.2,9.6,0-0.7,0-0.7l-0.1,103.5h0l0,0.9L-0.1,104.5z"/>
	<path d="M35.6,104l-20.9,20.9c-1,1-2.6,1-3.6,0l-2.4-2.4c-1-1-1-2.6,0-3.6l16.5-16.6L8.7,85.5c-1-1-1-2.6,0-3.6l2.4-2.4
		c1-1,2.6-1,3.6,0l20.9,20.9C36.6,101.3,36.6,103,35.6,104L35.6,104z"/>
	<path d="M8.7,100l20.8-20.8c1-1,2.6-1,3.6,0l2.4,2.4c1,1,1,2.6,0,3.6l-16.5,16.6l16.5,16.6c1,1,1,2.6,0,3.6l-2.4,2.4
		c-1,1-2.6,1-3.6,0L8.7,103.6C7.7,102.6,7.7,101,8.7,100L8.7,100z"/>
</g>
</svg>
