<?xml version="1.0" encoding="utf-8"?>
<!-- Generator: Adobe Illustrator 24.1.2, SVG Export Plug-In . SVG Version: 6.00 Build 0)  -->
<svg version="1.1" id="Layer_1" xmlns="http://www.w3.org/2000/svg" xmlns:xlink="http://www.w3.org/1999/xlink" x="0px" y="0px"
	 viewBox="0 0 49.1 207.9" style="enable-background:new 0 0 49.1 207.9;" xml:space="preserve">
<style type="text/css">
	.st0{fill:#E3E3E3;}
</style>
<g transform="translate(5.7556e-7 .033409)">
	<path class="st0" d="M49.3,103.5L49.3,103.5L49.1,0c0,0-7.2,10.3-17.5,19.1C21.3,27.9,0,33.6,0,44.3l0.1,60l-0.1,60
		c0,10.7,21.3,16.4,31.6,25.2c10.3,8.8,17.5,19.1,17.5,19.1l0.1-103.5h0l0-0.9L49.3,103.5z"/>
	<path d="M13.5,104l20.9-20.9c1-1,2.6-1,3.6,0l2.4,2.4c1,1,1,2.6,0,3.6l-16.5,16.6l16.5,16.6c1,1,1,2.6,0,3.6l-2.4,2.4
		c-1,1-2.6,1-3.6,0l-20.9-20.9C12.5,106.7,12.5,105,13.5,104L13.5,104z"/>
	<path d="M40.4,108l-20.8,20.8c-1,1-2.6,1-3.6,0l-2.4-2.4c-1-1-1-2.6,0-3.6L30,106.2L13.5,89.6c-1-1-1-2.6,0-3.6l2.4-2.4
		c1-1,2.6-1,3.6,0l20.8,20.8C41.4,105.4,41.4,107,40.4,108L40.4,108z"/>
</g>
</svg>
