<?xml version="1.0" encoding="utf-8"?>
<!-- Generator: Adobe Illustrator 24.1.2, SVG Export Plug-In . SVG Version: 6.00 Build 0)  -->
<svg version="1.1" id="Layer_1" xmlns="http://www.w3.org/2000/svg" xmlns:xlink="http://www.w3.org/1999/xlink" x="0px" y="0px"
	 viewBox="0 0 207.9 49.1" style="enable-background:new 0 0 207.9 49.1;" xml:space="preserve">
<style type="text/css">
	.st0{fill:#E3E3E3;}
</style>
<g transform="translate(5.7556e-7 .033409)">
	<path class="st0" d="M104.4,49.2L104.4,49.2l103.5-0.1c0,0-10.3-7.2-19.1-17.5C180,21.3,174.3-0.1,163.6,0l-60,0.1L43.5,0
		c-10.7,0-16.4,21.3-25.2,31.6C9.5,41.9-0.8,49.1-0.8,49.1l103.5,0.1v0l0.9,0L104.4,49.2z"/>
	<path d="M103.9,13.5l20.9,20.9c1,1,1,2.6,0,3.6l-2.4,2.4c-1,1-2.6,1-3.6,0l-16.6-16.5L85.5,40.4c-1,1-2.6,1-3.6,0L79.4,38
		c-1-1-1-2.6,0-3.6l20.9-20.9C101.2,12.5,102.9,12.5,103.9,13.5L103.9,13.5z"/>
	<path d="M99.9,40.4L79,19.6c-1-1-1-2.6,0-3.6l2.4-2.4c1-1,2.6-1,3.6,0L101.7,30l16.6-16.5c1-1,2.6-1,3.6,0l2.4,2.4c1,1,1,2.6,0,3.6
		l-20.8,20.8C102.5,41.4,100.9,41.4,99.9,40.4L99.9,40.4z"/>
</g>
</svg>
