<svg version="1.1" id="Layer_1" xmlns="http://www.w3.org/2000/svg" xmlns:xlink="http://www.w3.org/1999/xlink" x="0px" y="0px"
	 viewBox="0 0 50 50" style="enable-background:new 0 0 50 50;" xml:space="preserve" stroke="currentColor">
	<circle fill="none" class="st0" cx="25" cy="25" r="22.5"/>
	<path d="M25,5c11,0,20,9,20,20s-9,20-20,20S5,36,5,25S14,5,25,5 M25,0C11.2,0,0,11.2,0,25c0,13.8,11.2,25,25,25c13.8,0,25-11.2,25-25C50,11.2,38.8,0,25,0L25,0z"/>
	<path d="M35.3,36.8h-5.5v-10h-9.6v10h-5.5V13.2h5.5v9.9h9.6v-9.9h5.5V36.8z"/>
</svg>
