<svg version="1.1" viewBox="0 0 23.931 21.308" xmlns="http://www.w3.org/2000/svg" style="pointer-events: none;">
  <g transform="translate(-25.155 -27.206)" stroke="#000" strokeWidth=".26458px">
    <path d="m25.423 37.718 10.344-9.7679s0.30903-0.26309 0.41761-0.32991c0.10858-0.06682 0.35497-0.18375 0.47607-0.21716 0.12111-0.03341 0.41343-0.05429 0.53872-0.05429 0.12528 0 0.56853 0.10129 0.71913 0.18987 0.1506 0.08859 0.39865 0.25691 0.50495 0.36026s3.6233 3.4225 3.6233 3.4225l0.0032-3.4965s0.03132-0.12111 0.06264-0.18792c0.03132-0.06682 0.07935-0.13572 0.13155-0.18166 0.0522-0.04594 0.14825-0.10023 0.20045-0.10649 0.0522-0.0063 2.3929-0.01253 2.4535-0.01044 0.06055 0.0021 0.11067 0.02088 0.16704 0.06891 0.05638 0.04802 0.12737 0.0877 0.16287 0.14616 0.0355 0.05847 0.09605 0.16496 0.10023 0.24639 0.0042 0.08143 0.01253 6.6233 0.01253 6.6233s3.421 3.2176 3.4831 3.2855c0.06201 0.06792 0.1004 0.1506 0.11221 0.23328 0.01181 0.08268 0.02953 0.18604 0 0.27462-0.02953 0.08859-0.04429 0.1506-0.09154 0.2067-0.04725 0.05611-1.0691 1.4852-1.1192 1.5499-0.05011 0.06473-0.05638 0.06682-0.12946 0.09605-0.07308 0.02923-0.16913 0.06055-0.2443 0.03967s-0.1232-0.01253-0.16704-0.05846c-0.04385-0.04594-9.7236-9.1572-9.7915-9.2133-0.06792-0.05611-0.13584-0.07087-0.18899-0.08268-0.05315-0.01181-0.16832-0.01181-0.23624 0.01476-0.06792 0.02658-0.16241 0.11221-0.24805 0.19785-0.08563 0.08564-9.4802 8.9643-9.5512 9.0186-0.07099 0.05429-0.11693 0.09605-0.21298 0.11275-0.09605 0.01671-0.19628 0.01671-0.25892-0.0167-0.06264-0.03341-0.11693-0.05429-0.16287-0.10023-0.04594-0.04594-1.161-1.6412-1.1985-1.6913-0.03758-0.05011-0.05429-0.16913-0.04593-0.28189 0.02683-0.10876 0.49084-0.6326 0.44056-0.58257z" />
    <path d="m29.257 47.779v-7.8461s7.4042-7.0041 7.4752-7.0667c0.07099-0.06264 0.12111-0.10858 0.20045-0.15034 0.07934-0.04176 0.15869-0.06682 0.24221-0.05011 0.08352 0.0167 0.21716 0.06264 0.27562 0.13364 0.05847 0.07099 7.5545 7.1328 7.5545 7.1328s-0.02506 7.7675-0.02088 7.8636c0.0042 0.09605-0.06264 0.18792-0.1044 0.25474-0.04176 0.06682-0.11275 0.20463-0.21298 0.24221-0.10023 0.03758-0.18792 0.09605-0.25056 0.0877-0.06264-0.0084-4.6146-0.01253-4.6751-0.01462-0.06055-0.0021-0.18584-0.02088-0.24012-0.05429-0.05429-0.03341-0.12946-0.07308-0.16496-0.12111-0.0355-0.04803-0.13781-0.15243-0.16496-0.22133-0.02714-0.06891-0.07517-0.21089-0.08352-0.26101-0.0084-0.05011 0.03339-4.5829 0.0098-4.6715-0.02362-0.08859-0.02953-0.23033-0.12402-0.33664-0.09449-0.10631-0.21261-0.25986-0.29529-0.28939-0.08268-0.02953-2.8348-0.03543-2.9648-0.02953-0.12993 0.0059-0.20671 0.05906-0.27758 0.12993-0.07087 0.07087-0.18308 0.17127-0.21261 0.27758-0.02953 0.10631-0.05315 4.9137-0.07087 4.9905-0.01772 0.07678-0.02362 0.17718-0.11221 0.28348-0.08859 0.10631-0.19489 0.22442-0.31301 0.27167-0.11812 0.04725-4.927 0.0296-4.927 0.0296s-0.14616-0.04176-0.21716-0.09187c-0.07099-0.05011-0.15869-0.12528-0.21716-0.21298-0.05847-0.0877-0.10858-0.2798-0.10858-0.2798z" />
  </g>
</svg>
