<svg width="1280mm" height="1920mm" version="1.1" viewBox="0 0 1280 1920" xmlns="http://www.w3.org/2000/svg">
 <rect x="3.0254e-14" y="-1.9013e-15" width="1280" height="1920" fill="#e3e3e3" stroke-opacity="0"/>
 <path d="m982.03 652.62h-684.06c-43.592 0-78.93 34.404-78.93 76.845v461.07c0 42.441 35.337 76.845 78.93 76.845h684.06c43.592 0 78.93-34.404 78.93-76.845v-461.07c0-42.441-35.338-76.845-78.93-76.845zm-9.8662 537.91h-664.32a9.8662 9.6056 0 0 1-9.8662-9.6056v-441.86a9.8662 9.6056 0 0 1 9.8662-9.6056h664.32a9.8662 9.6056 0 0 1 9.8662 9.6056v441.86a9.8662 9.6056 0 0 1-9.8662 9.6056zm-542.64-397.03c-36.326 0-65.774 28.671-65.774 64.037 0 35.366 29.449 64.037 65.774 64.037 36.326 0 65.774-28.671 65.774-64.037 0-35.366-29.449-64.037-65.774-64.037zm-52.62 320.19h526.2v-128.07l-143.91-140.11c-7.7053-7.502-20.199-7.502-27.907 0l-196.52 191.34-64.977-63.261c-7.7053-7.5019-20.199-7.5019-27.906 0l-64.976 63.261z" fill="currentColor" stroke-width="1.6225"/>
</svg>
