<svg version="1.1" id="Layer_1" xmlns="http://www.w3.org/2000/svg" xmlns:xlink="http://www.w3.org/1999/xlink" x="0px" y="0px"
	 viewBox="0 0 892 896" style="enable-background:new 0 0 892 896;" xml:space="preserve">
<style type="text/css">
	.st0{fill:#FF4AFC;}
</style>
<path class="st0" d="M404.6,757.3v57.6c-37-26.3-71.8-84.8-94.4-165.3h60.1c-1.3-11.1-2.1-22.4-2.1-33.9c0-7.5,0.6-14.8,1.1-22.2
	h-72.2c-6.5-34.5-10.8-72-12.3-112h116c15.3-29.8,35.6-56.6,59.8-79.4v-88.6h140.5c0.8,4.6,1.2,9.5,1.9,14.1
	c18.1-3.7,36.9-5.6,56.1-5.8c-0.4-2.7-0.6-5.6-1-8.3h138c6.1,15.8,11,32.2,15,48.9c33,19.4,61.8,45.1,84.9,75.4
	C890.6,195.5,691.8,0,448.1,0C201,0,0,201,0,448s201,448,448.1,448c33.3,0,65.7-3.8,97-10.7C485.3,859.3,435.8,814.1,404.6,757.3z
	 M768.8,257.6H647c-14.7-62.1-36.4-115.7-63.3-157.1C661.5,131,726.5,186.7,768.8,257.6L768.8,257.6z M460.6,75.3
	c7.9,0.2,15.7,0.5,23.5,1.2c41.5,24.4,81.3,89,105.3,181.1H460.6V75.3z M404.6,425.6h-120c1-39.8,4.7-77.3,10.6-112h109.4
	L404.6,425.6L404.6,425.6z M404.6,81.1v176.5h-97.6C329.4,171.2,365.9,108.7,404.6,81.1L404.6,81.1z M312.6,100.5
	c-26.9,41.4-48.6,95-63.3,157.1H127.5C169.8,186.7,234.8,131,312.6,100.5L312.6,100.5z M100.1,313.6h138c-5.5,35.4-8.7,73-9.7,112
	H75.8C78.2,386.3,86.5,348.7,100.1,313.6z M104.3,593.6c-14.9-34.9-24.3-72.6-27.9-112h152.4c1.4,39.1,5.3,76.6,11.4,112H104.3z
	 M134.3,649.6H252c14.6,57.4,35.3,107,60.6,145.9C238.9,766.7,176.6,715.3,134.3,649.6L134.3,649.6z"/>
<path class="st0" d="M662.2,383.6c-96.6,0-174.9,78.3-174.9,174.9c0,35,84.7,195.9,136,290.2c16.6,30.5,60.2,30.6,76.9,0.2
	c51.7-94,137-254.6,137-290.3C837.2,461.9,758.9,383.6,662.2,383.6 M646.6,654c-60.9-9.6-100.4-71.8-79.5-133
	c13.3-38.9,51.3-66.6,92.5-67.3c64.6-1.2,111.7,55.5,102.2,116.3C753.1,625,701.6,662.6,646.6,654"/>
</svg>
