<?xml version="1.0" encoding="utf-8"?>
<!-- Generator: Adobe Illustrator 24.1.2, SVG Export Plug-In . SVG Version: 6.00 Build 0)  -->
<svg version="1.1" id="Layer_1" xmlns="http://www.w3.org/2000/svg" xmlns:xlink="http://www.w3.org/1999/xlink" x="0px" y="0px"
	 viewBox="0 0 581.6 427.5" style="enable-background:new 0 0 581.6 427.5;" xml:space="preserve">
<linearGradient id="SVGID_1_" gradientUnits="userSpaceOnUse" x1="-0.6217" y1="67.4434" x2="170.6957" y2="67.4434">
	<stop  offset="0" style="stop-color:#23242F"/>
	<stop  offset="1" style="stop-color:#43B843"/>
</linearGradient>
<polygon style="fill:url(#SVGID_1_);" points="0.6,135.7 -0.6,134.1 169.5,-0.8 170.7,0.8 "/>
<linearGradient id="SVGID_2_" gradientUnits="userSpaceOnUse" x1="-0.6119" y1="132.228" x2="449.7001" y2="132.228">
	<stop  offset="0" style="stop-color:#23242F"/>
	<stop  offset="1" style="stop-color:#43B843"/>
</linearGradient>
<path style="fill:url(#SVGID_2_);" d="M0.6,265.2l-1.2-1.6l168.1-130.1l0.6,0.7c22,26.6,55.3,66.3,60.2,70.5
	c11.9-11.2,211.3-197.4,220-205.5l1.4,1.5c-2.2,2-218.9,204.3-220.5,206l-0.3,0.3l-0.5,0c-0.8,0-2-0.1-32.2-36
	c-13.1-15.5-26-31.2-29-34.8L0.6,265.2z M227.8,205.3C227.8,205.3,227.8,205.3,227.8,205.3C227.8,205.3,227.8,205.3,227.8,205.3z"/>
<linearGradient id="SVGID_3_" gradientUnits="userSpaceOnUse" x1="66.1947" y1="271.6824" x2="582.2919" y2="271.6824">
	<stop  offset="0" style="stop-color:#23242F"/>
	<stop  offset="1" style="stop-color:#43B843"/>
</linearGradient>
<polygon style="fill:url(#SVGID_3_);" points="67.5,428.2 66.2,426.7 253.3,273.1 339.8,330.2 581,115.1 582.3,116.6 340,332.7 
	253.5,275.6 "/>
</svg>
