<svg version="1.1" id="Layer_1" xmlns="http://www.w3.org/2000/svg" xmlns:xlink="http://www.w3.org/1999/xlink" x="0px" y="0px"
	 viewBox="0 0 512 432" style="enable-background:new 0 0 512 432;" xml:space="preserve" fill="currentColor">
<path d="M152.2,6.2c9.9,8.9,10.7,24,1.8,33.9l-72,80c-4.4,4.9-10.6,7.8-17.2,7.9s-12.9-2.4-17.6-7L7,81c-9.4-9.4-9.4-24.6,0-33.9
	s24.6-9.4,33.9,0L63,69.2L118.2,8c8.9-9.9,24-10.7,33.9-1.8L152.2,6.2z"/>
<path d="M152.2,166.2c9.9,8.9,10.7,24,1.8,33.9l-72,80c-4.4,4.9-10.6,7.8-17.2,7.9s-12.9-2.4-17.6-7L7,241c-9.4-9.4-9.4-24.6,0-33.9
	s24.6-9.4,33.9,0L63,229.2l55.1-61.2c8.9-9.9,24-10.7,33.9-1.8L152.2,166.2z"/>
<path d="M224.1,64c0-17.7,14.3-32,32-32h224c17.7,0,32,14.3,32,32s-14.3,32-32,32H256C238.3,96,224.1,81.7,224.1,64z"/>
<path d="M224.1,224c0-17.7,14.3-32,32-32h224c17.7,0,32,14.3,32,32s-14.3,32-32,32H256C238.3,256,224.1,241.7,224.1,224z"/>
<path d="M160.1,384c0-17.7,14.3-32,32-32h288c17.7,0,32,14.3,32,32s-14.3,32-32,32h-288C174.4,416,160.1,401.7,160.1,384z"/>
<circle cx="48" cy="384" r="48"/>
</svg>
