<svg version="1.1" id="Layer_1" xmlns="http://www.w3.org/2000/svg" xmlns:xlink="http://www.w3.org/1999/xlink" x="0px" y="0px"
	 viewBox="0 0 512 448" style="enable-background:new 0 0 512 448;" xml:space="preserve" fill="currentColor">
<path d="M217.9,73.9l122.8,122.8c7.2,7.2,11.3,17.1,11.3,27.3c0,10.2-4.1,20.1-11.3,27.3L217.9,374.1c-6.4,6.4-15,9.9-24,9.9
	c-18.7,0-33.9-15.2-33.9-33.9V288H32c-17.7,0-32-14.3-32-32v-64c0-17.7,14.3-32,32-32h128V97.9c0-18.7,15.2-33.9,33.9-33.9
	C202.9,64,211.5,67.6,217.9,73.9z M352,384h64c17.7,0,32-14.3,32-32V96c0-17.7-14.3-32-32-32h-64c-17.7,0-32-14.3-32-32
	s14.3-32,32-32h64c53,0,96,43,96,96v256c0,53-43,96-96,96h-64c-17.7,0-32-14.3-32-32S334.3,384,352,384z"/>
</svg>
