<?xml version="1.0" encoding="utf-8"?>
<!-- Generator: Adobe Illustrator 24.1.2, SVG Export Plug-In . SVG Version: 6.00 Build 0)  -->
<svg version="1.1" id="Layer_1" xmlns="http://www.w3.org/2000/svg" xmlns:xlink="http://www.w3.org/1999/xlink" x="0px" y="0px"
	 viewBox="0 0 376 449.1" style="enable-background:new 0 0 376 449.1;" xml:space="preserve">
<style type="text/css">
	.st0{opacity:0.67;enable-background:new    ;}
	.st1{fill:#6ABD45;}
	.st2{opacity:0.5;fill:#6ABD45;enable-background:new    ;}
</style>
<path d="M172,0.7c-31.3,6.1-57.8,27.4-68.6,55.3l-2.4,6.2l-8.5,2.1C47.2,75.7,14,95,3.5,115.9c-3.2,6.3-3.5,7.7-3.5,15.4
	c0,7.4,0.4,9.3,3.1,15.1c14,29.5,68.1,53.1,139.9,61.1c16.1,1.8,73.9,1.8,90,0c71.9-8,125-31.1,139.6-60.8c3-6,3.4-7.8,3.4-14.9
	c0-6.9-0.4-8.9-3.1-14.6c-10.3-21.7-43.5-41.4-88.1-52.4c-6.6-1.6-11.3-3.2-11.3-3.9c0-2.5-8.9-19.3-13.4-25.3
	c-12-15.9-30.6-28.3-50.1-33.3C199.7-0.4,181.6-1.2,172,0.7z M204.9,23.9c24.8,6.4,44.9,27.2,50.1,51.9c4.1,19.4,0.5,27.3-16,35.1
	c-6.9,3.3-20.1,7.2-21,6.2c-0.3-0.3-1-3.1-1.5-6.3c-1-6.4-4.7-13.4-8.3-15.8c-2.4-1.5-2.6-1.4-7,2.7c-2.4,2.4-6.5,5.1-9.1,6.1
	c-4.4,1.7-4.8,1.7-9.2,0c-2.6-1-6.7-3.7-9.1-6.1c-4.4-4.1-4.6-4.2-7-2.7c-3.6,2.4-7.3,9.4-8.3,15.8c-0.5,3.2-1.2,6-1.5,6.3
	c-0.9,1-14.1-2.9-21-6.2c-8.5-4-13-7.6-15.5-12.7c-4.1-7.9-1.8-23.9,5.5-38.7c7.8-15.7,21.8-28,38.4-33.8
	C177.6,21.1,191.7,20.5,204.9,23.9z M104.8,141.7c4.9,1.8,7.6,4.2,9.4,8.4c1.2,3,1.2,3.8-0.4,7c-5.9,12.1-26.8,11.8-31.9-0.5
	c-2.5-5.8,1.5-12.1,9.3-14.9c2.1-0.7,5.2-1.3,6.8-1.3C99.7,140.4,102.7,141,104.8,141.7z M282.7,141.3c11.1,3.1,14.6,14.3,6.5,20.3
	c-9.7,7.3-23.3,5.1-28-4.5c-1.6-3.2-1.6-4-0.4-7c1.8-4.2,4.5-6.6,9.4-8.4C274.8,140.1,277.9,140,282.7,141.3z M196.4,154.8
	c1.6,0.8,4.1,2.9,5.6,4.7c2.2,2.6,2.6,3.9,2.2,7.1c-0.6,4.7-2.9,7.4-8.2,9.8c-7.3,3.4-18,1.6-22.8-3.9c-1-1.1-2.1-3.8-2.4-5.9
	c-0.6-4.3,1.8-8.2,7.1-11.4C181.7,152.9,192.3,152.6,196.4,154.8z"/>
<path d="M179.5,37.2c-11.6,3.8-16.7,12-15.8,25.2c0.7,8.8,5.6,19.3,12.6,27c9.1,9.9,13.3,10,22.2,0.2c16.5-18,17.3-42.5,1.7-50.5
	C195.7,36.8,184,35.7,179.5,37.2z M178.2,60.3c3.9,2.4,6.7,7.4,5.9,10.6c-0.9,3.5-6.4,3.3-9.8-0.4c-2.7-2.9-4.8-6.4-4.8-8.1
	c0-1.3,2.9-4.1,4.3-4.1C174.5,58.3,176.4,59.2,178.2,60.3z M204.8,60.4c2.7,4.3-7.8,15-12,12.3c-3.4-2.1-2.8-6.1,1.6-10.5
	C198.7,57.9,202.8,57.2,204.8,60.4z"/>
<path class="st0" d="M266.5,201l-81.1,7.6l-81.1-7.6L45.6,433.8c45.3,8.9,81.5,15,139.8,15s94.5-6.1,139.8-15L266.5,201z"/>
<path d="M266.5,201.3"/>
<g>
	<g>
		<path class="st1" d="M210.5,283.1c24.5,10.9,35.6,39.9,24.7,64.4s-39.9,35.6-64.4,24.7c-24.5-10.9-35.7-39.7-24.8-64.2
			C156.9,283.5,186,272.2,210.5,283.1 M213.2,277c-28-12.4-60.7,0.1-73.3,28.3c-12.5,28.2,0.1,60.7,28.1,73.2s60.7-0.1,73.2-28.1
			C253.7,322.5,241.2,289.5,213.2,277L213.2,277z"/>
	</g>
</g>
<g>
	<path class="st1" d="M209.6,328.3c-1.2,2.6-3.2,4.4-5.4,5.6l37.1,16.5c12.4-28-0.1-60.7-28.1-73.2l-14.3,32.2
		c5.5,2.4,9.1,5.3,10.7,8.7C211.1,321,211.2,324.7,209.6,328.3z"/>
	<path class="st1" d="M200.1,325.1c1.6-3.6-0.1-6.8-4.2-8.6l0,0l-1.1,2.4l-4.1,9.1l0,0C194.9,329.6,198.5,328.5,200.1,325.1z"/>
	<path class="st1" d="M188.7,327.1l1.4,0.6c0.2,0.1,0.4,0.2,0.4,0.2l0,0L188.7,327.1z"/>
	<path class="st1" d="M183.5,332.8l-7.1,16l-9.1-4.1l10-22.5l-1.6-0.7l-35.8-16.2c-12.4,28,0.1,60.7,28.1,73.2l19.6-44
		c-0.4-0.2-0.8-0.4-1.4-0.6L183.5,332.8z"/>
	<path class="st2" d="M186.5,326.1l5-11.1c0.7,0.1,1.9,0.6,4.2,1.4l3.1-6.9c-0.4-0.2-0.6-0.3-1-0.5c-4.9-2.2-9.5-3.7-12.5-4.6
		l-7.8,17.6l11.4,4.8l-2.2-1L186.5,326.1z"/>
	<path class="st2" d="M197.7,335.2L197.7,335.2c2-0.1,4.3-0.5,6.5-1.5l-13.7-5.8l0,0l-3,6.7c2.7,1.7,3.4,3.9,2.4,8.8
		c-1,5.6-1.5,9.3-1.4,10.8l9.3,4.1c-0.1-2,1-7.8,1.9-13C200.5,341,200,337.7,197.7,335.2z"/>
</g>
</svg>
