<?xml version="1.0" encoding="utf-8"?>
<!-- Generator: Adobe Illustrator 24.1.2, SVG Export Plug-In . SVG Version: 6.00 Build 0)  -->
<svg version="1.1" id="Layer_1" xmlns="http://www.w3.org/2000/svg" xmlns:xlink="http://www.w3.org/1999/xlink" x="0px" y="0px"
	 viewBox="0 0 92.2 75.3" style="enable-background:new 0 0 92.2 75.3;" xml:space="preserve">
<style type="text/css">
	.st0{fill:#00A300;}
</style>
<path class="st0" d="M75.9,7.9c-0.1-0.3-0.5-0.5-0.7-0.2L61,23.3c-0.2,0.2-0.1,0.6,0.2,0.7l4.3,1.1c0.2,0,0.3,0.2,0.2,0.4l-4.9,18.9
	c-0.2,0.8-0.3,1.5-0.5,2.3s-0.3,1.6-0.5,2.5c-0.2-0.9-0.4-1.7-0.6-2.5c-0.2-0.8-0.5-1.5-0.7-2.2l-7-22.8c-0.2-0.7-0.6-1.2-1.2-1.6
	c-0.6-0.4-1.3-0.6-2.2-0.6h-3c-0.8,0-1.5,0.2-2.1,0.7c-0.6,0.4-1,0.9-1.2,1.5l-7.1,22.8c-0.2,0.8-0.5,1.6-0.7,2.4
	c-0.3,0.9-0.5,1.8-0.7,2.7c-0.1-0.9-0.3-1.8-0.5-2.6c-0.2-0.9-0.4-1.7-0.6-2.4l-6-22.8c-0.2-0.7-0.6-1.2-1.2-1.6s-1.3-0.6-2.2-0.6
	h-8c-0.2,0-0.4,0.2-0.3,0.5l13.3,43c0,0.1,0.2,0.2,0.3,0.2h8.7c0.2,0,0.3-0.1,0.3-0.2l8.3-26.9c0.1-0.4,0.3-0.9,0.4-1.4
	c0.1-0.5,0.3-1,0.4-1.6c0.1,0.6,0.3,1.1,0.4,1.6c0.1,0.5,0.3,1,0.4,1.4l8.1,26.9c0,0.1,0.2,0.2,0.3,0.2h8.7c0.2,0,0.3-0.1,0.3-0.2
	l10.9-35c0.1-0.2,0.2-0.3,0.4-0.2l4.4,1.2c0.3,0.1,0.5-0.2,0.4-0.4L75.9,7.9z"/>
</svg>
