<?xml version="1.0" encoding="utf-8"?>
<!-- Generator: Adobe Illustrator 24.1.2, SVG Export Plug-In . SVG Version: 6.00 Build 0)  -->
<svg version="1.1" id="Layer_1" xmlns="http://www.w3.org/2000/svg" xmlns:xlink="http://www.w3.org/1999/xlink" x="0px" y="0px"
	 viewBox="0 0 189.6 56.1" style="enable-background:new 0 0 189.6 56.1;" xml:space="preserve">
<style type="text/css">
	.st0{fill:#00A300;}
	.st1{display:none;fill:none;}
	.st2{display:none;fill:none;stroke:#000000;stroke-width:0.25;stroke-miterlimit:10;}
</style>
<g>
	<path class="st0" d="M28.1,12.4v7.8H10.2v11.1h14.9v7.8H10.2v17H0V12.4H28.1z"/>
	<path class="st0" d="M44.1,16.5c0,0.7-0.1,1.4-0.4,2.1c-0.3,0.7-0.7,1.2-1.2,1.7c-0.5,0.5-1.1,0.9-1.8,1.2s-1.4,0.4-2.2,0.4
		c-0.8,0-1.5-0.1-2.1-0.4c-0.7-0.3-1.2-0.7-1.8-1.2c-0.5-0.5-0.9-1.1-1.2-1.7c-0.3-0.6-0.4-1.3-0.4-2.1c0-0.8,0.1-1.5,0.4-2.1
		c0.3-0.7,0.7-1.2,1.2-1.7c0.5-0.5,1.1-0.9,1.8-1.2c0.7-0.3,1.4-0.4,2.1-0.4c0.8,0,1.5,0.1,2.2,0.4s1.3,0.7,1.8,1.2
		c0.5,0.5,0.9,1.1,1.2,1.7C43.9,15,44.1,15.7,44.1,16.5z M43,25v31.1h-9.3V25H43z"/>
	<path class="st0" d="M50.5,56.1V25h5.8c0.6,0,1.1,0.1,1.5,0.4s0.7,0.6,0.8,1.2l0.5,1.8c0.6-0.6,1.2-1.1,1.9-1.6
		c0.6-0.5,1.3-0.9,2.1-1.2c0.7-0.3,1.5-0.6,2.4-0.8s1.8-0.3,2.8-0.3c1.7,0,3.2,0.3,4.5,0.9c1.3,0.6,2.4,1.4,3.3,2.5
		c0.9,1,1.6,2.3,2,3.8s0.7,3,0.7,4.7v19.8h-9.3V36.4c0-1.5-0.4-2.7-1-3.6c-0.7-0.8-1.7-1.3-3.1-1.3c-1,0-2,0.2-2.9,0.7
		c-0.9,0.4-1.8,1-2.6,1.8v22.2H50.5z"/>
	<path class="st0" d="M82,12.4h8.5c0.9,0,1.6,0.2,2.2,0.6c0.6,0.4,1,0.9,1.2,1.6l6,22.8c0.2,0.7,0.4,1.5,0.6,2.4
		c0.2,0.8,0.4,1.7,0.5,2.6c0.2-0.9,0.4-1.8,0.7-2.7c0.2-0.8,0.5-1.6,0.7-2.4l7.1-22.8c0.2-0.6,0.6-1.1,1.2-1.5
		c0.6-0.5,1.3-0.7,2.1-0.7h3c0.9,0,1.6,0.2,2.2,0.6c0.6,0.4,1,0.9,1.2,1.6l7,22.8c0.2,0.7,0.5,1.4,0.7,2.2c0.2,0.8,0.4,1.6,0.6,2.5
		c0.2-0.9,0.3-1.7,0.5-2.5c0.2-0.8,0.3-1.5,0.5-2.3l6-22.8c0.2-0.6,0.5-1.1,1.1-1.5c0.6-0.4,1.3-0.7,2.2-0.7h8l-13.5,43.7H123
		L114.8,29c-0.1-0.4-0.3-0.9-0.4-1.4s-0.3-1-0.4-1.6c-0.1,0.6-0.3,1.1-0.4,1.6s-0.3,1-0.4,1.4l-8.3,27.1h-9.2L82,12.4z"/>
	<path class="st0" d="M160.3,16.5c0,0.7-0.2,1.4-0.5,2.1c-0.3,0.7-0.7,1.2-1.2,1.7c-0.5,0.5-1.1,0.9-1.8,1.2
		c-0.7,0.3-1.4,0.4-2.2,0.4c-0.8,0-1.5-0.1-2.1-0.4s-1.2-0.7-1.8-1.2c-0.5-0.5-0.9-1.1-1.2-1.7c-0.3-0.6-0.4-1.3-0.4-2.1
		c0-0.8,0.1-1.5,0.4-2.1s0.7-1.2,1.2-1.7c0.5-0.5,1.1-0.9,1.8-1.2s1.4-0.4,2.1-0.4c0.8,0,1.5,0.1,2.2,0.4c0.7,0.3,1.3,0.7,1.8,1.2
		c0.5,0.5,0.9,1.1,1.2,1.7S160.3,15.7,160.3,16.5z M159.2,25v31.1h-9.3V25H159.2z"/>
	<path class="st0" d="M189.9,28.7c0,0.6-0.1,1.3-0.4,1.8s-0.5,1.1-0.8,1.5l-13,17.2h13.9v6.9H165v-3.8c0-0.4,0.1-0.9,0.3-1.4
		s0.5-1.1,0.9-1.6l13.1-17.4h-13.5V25h24.1V28.7z"/>
</g>
<path class="st0" d="M143.6,0.7l4.7,20.5c0.1,0.3-0.2,0.6-0.5,0.5L129,16.7c-0.3-0.1-0.4-0.5-0.2-0.7l14.1-15.5
	C143.1,0.3,143.5,0.4,143.6,0.7z"/>
<line class="st1" x1="130.8" y1="28.4" x2="140.2" y2="30.7"/>
<line class="st2" x1="135.4" y1="29.5" x2="141.1" y2="9.1"/>
</svg>
