<svg version="1.1" id="Layer_1" xmlns="http://www.w3.org/2000/svg" xmlns:xlink="http://www.w3.org/1999/xlink" x="0px" y="0px"
	 viewBox="0 0 182.8 182.8" style="enable-background:new 0 0 182.8 182.8;" xml:space="preserve" fill="currentColor">
	<path d="M91.5,14c42.7,0,77.4,34.7,77.4,77.4s-34.7,77.4-77.4,77.4s-77.4-34.7-77.4-77.4S48.9,14,91.5,14 M91.5,0
		C41.1,0,0.1,40.9,0.1,91.4s40.9,91.4,91.4,91.4s91.4-40.9,91.4-91.4S142,0,91.5,0L91.5,0z"/>
  <path d="M142.3,79.7h-32.2h-5.9H78.7h-38c-4.7,0-8.5,3.8-8.5,8.5v8.5c0,4.7,3.8,8.5,8.5,8.5H69h1.9h7.9h25.5h9.8h28.3
	  c4.7,0,8.5-3.8,8.5-8.5v-8.5C150.8,83.5,147,79.7,142.3,79.7z"/>
</svg>
