<svg width="19" height="20" stroke-width="0" version="1.1" viewBox="0 0 19 20" xmlns="http://www.w3.org/2000/svg">
 <path d="m16 1c-1.654 0-3 1.346-3 3 0 0.502 0.136 0.968 0.354 1.385l-1.116 1.302a3.976 3.976 0 0 0-2.238-0.687c-0.739 0-1.425 0.216-2.02 0.566l-1.414-1.414a3.449 3.449 0 0 0 0.434-1.652c0-1.93-1.57-3.5-3.5-3.5s-3.5 1.57-3.5 3.5 1.57 3.5 3.5 3.5c0.601 0 1.158-0.166 1.652-0.434l1.414 1.414a3.972 3.972 0 0 0-0.566 2.02c0 0.997 0.38 1.899 0.985 2.601l-1.692 1.692 0.025 0.025a2.962 2.962 0 0 0-1.318-0.318c-1.654 0-3 1.346-3 3s1.346 3 3 3 3-1.346 3-3c0-0.476-0.121-0.919-0.318-1.318l0.025 0.025 1.954-1.954c0.421 0.15 0.867 0.247 1.339 0.247 2.206 0 4-1.794 4-4a3.96 3.96 0 0 0-0.439-1.785l1.253-1.462c0.364 0.158 0.764 0.247 1.186 0.247 1.654 0 3-1.346 3-3s-1.346-3-3-3zm-12 17a1 1 0 1 1 0-2 1 1 0 0 1 0 2zm-2-14.5c0-0.827 0.673-1.5 1.5-1.5s1.5 0.673 1.5 1.5-0.673 1.5-1.5 1.5-1.5-0.673-1.5-1.5zm8 8.5c-1.103 0-2-0.897-2-2s0.897-2 2-2 2 0.897 2 2-0.897 2-2 2zm6-7a1 1 0 1 1 0-2 1 1 0 0 1 0 2z"/>
</svg>
