<svg version="1.1" id="Layer_1" xmlns="http://www.w3.org/2000/svg" xmlns:xlink="http://www.w3.org/1999/xlink" x="0px" y="0px"
	 viewBox="0 0 576 512" style="enable-background:new 0 0 576 512;" xml:space="preserve" fill="currentColor" stroke="currentColor">
<style type="text/css">
	.st0{;stroke-width:32;stroke-miterlimit:10;}
	.st1{fill:none;}
	.st2{stroke-width:32;stroke-linecap:round;stroke-miterlimit:10;}
</style>
<ellipse class="st0" cx="326.5" cy="308.5" rx="93.7" ry="92.2" fill="none"/>
<g>
	<path d="M211.7,330.8l-45.9,160.8c-2.9,10.2,4.8,20.4,15.4,20.4h56.2c11.5,0,22.1-6.1,27.8-16.1l40.5-70.9
		C258.2,416.4,220.7,378.7,211.7,330.8z"/>
	<path d="M482.3,192H365.7L265.2,16.1C259.5,6.2,248.9,0,237.4,0h-56.2c-10.6,0-18.3,10.2-15.3,20.4l49,171.6H112l-43.2-57.6
		c-3-4-7.8-6.4-12.8-6.4H14c-7.7,0-14,6.2-14,14c0,1.3,0.1,2.6,0.5,3.9L32,256L0.5,366.1C0.2,367.4,0,368.7,0,370
		c0,7.7,6.2,14,14,14h42c5,0,9.8-2.4,12.8-6.4L112,320h98.2c-0.4-3.8-0.6-7.7-0.6-11.5C209.6,243,262,190,326.5,190
		s116.9,53,116.9,118.5c0,3.9-0.2,7.7-0.6,11.5h39.4c34.2,0,93.7-28,93.7-64C576,221,516.5,192,482.3,192z"/>
</g>
<circle class="st1" cx="127.6" cy="385.4" r="0.5"/>
<line class="st2" x1="403.4" y1="374.7" x2="516" y2="473"/>
<path d="M326.5,200.1c-59.8,0-108.4,48.5-108.4,108.4c0,54.6,40.3,99.7,92.8,107.3l17.7-31c-0.7,0-1.4,0.1-2.2,0.1
	c-42.5,0-76.9-34.4-76.9-76.9c0-42.5,34.4-76.9,76.9-76.9c42.5,0,76.9,34.4,76.9,76.9c0,4.1-0.3,8.2-1,12.1h31.8
	c0.4-3.8,0.6-7.6,0.6-11.5C434.9,248.6,386.4,200.1,326.5,200.1z"/>
</svg>
