<svg version="1.1" viewBox="0 0 130.16 130.16" xmlns="http://www.w3.org/2000/svg">
 <g transform="translate(-38.754 -82.72)" stroke-width="0">
  <path x="95.281593" y="82.719917" width="16.437077" height="130.16026" d="m97.927 82.72h11.145a2.6458 2.6458 45 0 1 2.6458 2.6458v124.87a2.6458 2.6458 135 0 1-2.6458 2.6458h-11.145a2.6458 2.6458 45 0 1-2.6458-2.6458v-124.87a2.6458 2.6458 135 0 1 2.6458-2.6458z"/>
  <path transform="rotate(90)" x="139.31424" y="-168.91435" width="16.437077" height="130.16026" d="m141.96-168.91h11.145a2.6458 2.6458 45 0 1 2.6458 2.6458v124.87a2.6458 2.6458 135 0 1-2.6458 2.6458h-11.145a2.6458 2.6458 45 0 1-2.6458-2.6458v-124.87a2.6458 2.6458 135 0 1 2.6458-2.6458z"/>
 </g>
</svg>
