<svg version="1.1" viewBox="0 0 309.48 176.42" xmlns="http://www.w3.org/2000/svg">
  <g transform="translate(82.7 14.075)">
    <path d="m-73.668 22.584c42.333 179.54 218.85 129.65 291.42 105.83" fill="none" stroke="#000" strokeLinecap="round" strokeWidth="18.065" />
    <path d="m-50.598 12.459a25.886 25.886 0 0 1 25.165-26.524 25.886 25.886 0 0 1 26.588 25.097 25.886 25.886 0 0 1-25.029 26.652 25.886 25.886 0 0 1-26.716-24.961" strokeWidth="0" />
    <g fill="none">
      <path d="m-9.0336 50.932c3.7798 4.9137 10.961 20.411 17.009 26.836 6.0476 6.4256 27.592 19.655 35.53 24.568" />
      <g stroke="#000" strokeLinecap="round">
        <path d="m-2.986 57.358c4.9137 14.363 10.961 20.789 18.899 27.97 7.9375 7.1815 18.521 9.8274 27.592 17.009" strokeWidth="39.965" />
        <path d="m-3.931 55.61c19.938 12.095 34.963 5.9059 41.01-8.4572 2.8817-6.8441 5.2917-21.45 5.2917-21.45" strokeWidth="18.865" />
        <path d="m47.19 102.24c13.786-6.4425 44.846-33.609 115.94 9.6882" strokeWidth="27.065" />
        <path d="m131.76 119.91c-0.37798-0.75595-29.085-54.946-30.994-58.208-4.5357-7.7485-10.205-6.9926-16.442-1.5119-3.0711 2.6988-36.475 35.719-36.475 35.719" strokeWidth="20.765" />
      </g>
    </g>
    <path d="m12.457 7.0943 10.223-11.493s1.9377 0.60136 3.8754 1.6704c1.9377 1.0691 5.6127 2.94 7.2163 4.1427 1.6036 1.2027 3.8754 3.2072 5.0113 4.8109 1.1359 1.6036 2.205 4.3431 2.3386 5.2786 0.13364 0.93544 0.53454 2.8731 0.53454 2.8731s-1.2027-0.13363-2.1382 0.13364c-0.93544 0.26727-2.8731 1.2027-3.8086 1.9377-0.93544 0.73499-3.1404 3.2072-3.6081 4.1427-0.46772 0.93544-0.80181 2.4054-0.80181 2.4054s-0.86863 0.06682-1.9377-0.06682c-1.0691-0.13363-3.6081-1.0691-4.4768-1.7372-0.86863-0.66817-5.8131-4.6772-7.3499-6.6149-1.4526-1.8315-5.0781-7.4835-5.0781-7.4835z" fill="#020000" fillOpacity=".9955" strokeWidth="0" />
    <path d="m53.149 34.824s0.33409 0.60136 0.60136 1.6036 0.46772 2.0045 0.13364 3.0736-0.93544 2.0713-1.1359 2.4722c-0.20045 0.4009-0.4009 0.80181-0.20045 1.2027 0.20045 0.4009 0.46772 0.60136 0.46772 0.60136l12.027-13.631s-0.06682-0.33409-0.46772-0.46772c-0.4009-0.13364-0.93544-0.20045-1.6036 0.06682-0.66817 0.26727-1.6704 1.4032-2.6059 1.6704-0.93544 0.26727-2.4722 0.4009-3.6081 0.13364-1.1359-0.26727-2.3386-0.93544-2.3386-0.93544z" strokeWidth="0" />
  </g>
</svg>
