<?xml version="1.0" encoding="utf-8"?>
<!-- Generator: Adobe Illustrator 24.1.2, SVG Export Plug-In . SVG Version: 6.00 Build 0)  -->
<svg version="1.1" id="Layer_1" xmlns="http://www.w3.org/2000/svg" xmlns:xlink="http://www.w3.org/1999/xlink" x="0px" y="0px"
	 viewBox="0 0 50 50.1" style="enable-background:new 0 0 50 50.1;" xml:space="preserve">
<style type="text/css">
	.st0{fill:#6ABD45;}
	.st1{opacity:0.5;fill:#6ABD45;enable-background:new    ;}
</style>
<g>
	<g>
		<path class="st0" d="M25,3c12.1,0,22,9.9,22,22s-9.9,22-22,22S3,37.2,3,25.1S12.9,3,25,3 M25,0C11.2,0,0,11.2,0,25.1
			s11.2,25,25,25s25-11.2,25-25S38.8,0,25,0L25,0z"/>
	</g>
</g>
<g>
	<path class="st0" d="M32.9,21.8c0,1.3-0.5,2.4-1.2,3.3H50c0-13.8-11.2-25-25-25V16c2.7,0,4.7,0.5,6,1.6
		C32.2,18.5,32.9,20,32.9,21.8z"/>
	<path class="st0" d="M28.4,22.2c0-1.8-1.3-2.8-3.3-2.8l0,0v1.2v4.5l0,0C27.1,25,28.4,23.9,28.4,22.2z"/>
	<path class="st0" d="M24.1,25.1h0.7c0.1,0,0.2,0,0.2,0l0,0H24.1z"/>
	<path class="st0" d="M23,28.4v7.9h-4.5V25.2h-0.8L0,25.1c0,13.8,11.2,25,25,25V28.4c-0.2,0-0.4,0-0.7,0H23z"/>
	<path class="st1" d="M23,25.1v-5.5c0.3-0.1,0.9-0.1,2-0.2V16c-0.2,0-0.3,0-0.5,0c-2.4,0-4.6,0.2-6,0.4v8.7l5.6-0.1H23V25.1z"/>
	<path class="st1" d="M29.3,26.8L29.3,26.8c0.8-0.4,1.7-1,2.4-1.8L25,25.1l0,0v3.3c1.4,0.2,2.1,1,2.6,3.2c0.6,2.5,1.1,4.1,1.4,4.7
		h4.6c-0.4-0.8-1-3.4-1.6-5.7C31.5,28.7,30.7,27.4,29.3,26.8z"/>
</g>
</svg>
