<?xml version="1.0" encoding="utf-8"?>
<!-- Generator: Adobe Illustrator 24.1.2, SVG Export Plug-In . SVG Version: 6.00 Build 0)  -->
<svg version="1.1" id="Layer_1" xmlns="http://www.w3.org/2000/svg" xmlns:xlink="http://www.w3.org/1999/xlink" x="0px" y="0px"
	 viewBox="0 0 50 50" style="enable-background:new 0 0 50 50;" xml:space="preserve">
<style type="text/css">
	.st0{fill:#43b843ff;}
	.st1{opacity:0.31;fill:#43b843ff;}
</style>
<g>
	<path class="st0" d="M26.9,20.6c0.4,0.1,0.7,0.3,0.9,0.5s0.4,0.5,0.5,0.7c0.1,0.3,0.2,0.6,0.2,0.9c0,0.4-0.1,0.7-0.2,1
		c-0.1,0.3-0.2,0.6-0.4,0.9c-0.1,0.1-0.2,0.2-0.3,0.3H50C50,11.2,38.8,0,25,0v20.5h0.6C26.1,20.5,26.6,20.5,26.9,20.6z"/>
	<path class="st0" d="M26.5,24.4c0.2-0.2,0.3-0.4,0.4-0.6c0.1-0.2,0.1-0.5,0.1-0.7c0-0.4-0.1-0.7-0.4-1c-0.3-0.2-0.6-0.3-1.2-0.3H25
		V25c0.3,0,0.6,0,0.9-0.1C26.1,24.7,26.3,24.6,26.5,24.4z"/>
	<path class="st0" d="M24.5,26.2h-0.7l-0.5,3.7h-1.7l0.6-4.9H0c0,13.8,11.2,25,25,25V26.4c0-0.1-0.1-0.1-0.1-0.2
		C24.8,26.2,24.7,26.2,24.5,26.2z"/>
	<path class="st1" d="M25,25C25,25,25,25,25,25l-1,0l0.4-3.2H25v-1.3h-2.1L22.3,25L25,25L25,25z"/>
	<path class="st1" d="M26.7,26c-0.1-0.1-0.2-0.2-0.3-0.2c0.4-0.1,0.7-0.3,0.9-0.5c0.2-0.1,0.3-0.2,0.4-0.4H25v1.4c0,0,0.1,0,0.1,0.1
		l1.4,3c0,0.1,0.1,0.2,0.2,0.3c0.1,0.1,0.2,0.1,0.4,0.1h1.5l-1.7-3.5C26.8,26.2,26.7,26.1,26.7,26z"/>
</g>
<g>
	<path class="st0" d="M25,2.9c12.1,0,22,9.9,22,22s-9.9,22-22,22S3,37.1,3,25S12.9,2.9,25,2.9 M25-0.1C11.2-0.1,0,11.1,0,25
		s11.2,25,25,25s25-11.2,25-25S38.8-0.1,25-0.1L25-0.1z"/>
</g>
</svg>
