<svg xmlns="http://www.w3.org/2000/svg" xmlns:xlink="http://www.w3.org/1999/xlink" version="1.1" x="0px" y="0px" viewBox="0 0 64 64"
  style="enable-background:new 0 0 64 64;" xml:space="preserve">
  <path
    d="M2,19h42c0.553,0,1-0.448,1-1v-2c0-2.953-1.841-5.479-4.433-6.506C41.451,8.592,42,7.36,42,6c0-2.757-2.243-5-5-5  s-5,2.243-5,5c0,1.36,0.549,2.592,1.433,3.494c-1.441,0.57-2.645,1.605-3.433,2.919c-0.789-1.314-1.993-2.349-3.433-2.919  C27.451,8.592,28,7.36,28,6c0-2.757-2.243-5-5-5s-5,2.243-5,5c0,1.36,0.549,2.592,1.433,3.494c-1.441,0.57-2.645,1.605-3.433,2.919  c-0.789-1.314-1.993-2.349-3.433-2.919C13.451,8.592,14,7.36,14,6c0-2.757-2.243-5-5-5S4,3.243,4,6c0,1.36,0.549,2.592,1.433,3.494  C2.841,10.521,1,13.047,1,16v2C1,18.552,1.447,19,2,19z M37,3c1.654,0,3,1.346,3,3s-1.346,3-3,3s-3-1.346-3-3S35.346,3,37,3z M36,11  h2c2.757,0,5,2.243,5,5v1H31v-1C31,13.243,33.243,11,36,11z M23,3c1.654,0,3,1.346,3,3s-1.346,3-3,3s-3-1.346-3-3S21.346,3,23,3z   M22,11h2c2.757,0,5,2.243,5,5v1H17v-1C17,13.243,19.243,11,22,11z M9,3c1.654,0,3,1.346,3,3s-1.346,3-3,3S6,7.654,6,6S7.346,3,9,3z   M3,16c0-2.757,2.243-5,5-5h2c2.757,0,5,2.243,5,5v1H3V16z">
  </path>
  <path
    d="M27,44v-3.489l17.586-12.701C44.846,27.623,45,27.321,45,27v-5c0-0.552-0.447-1-1-1H2c-0.553,0-1,0.448-1,1v5  c0,0.321,0.154,0.623,0.414,0.811L19,40.511V47c0,0.347,0.18,0.668,0.475,0.851C19.635,47.95,19.817,48,20,48  c0.153,0,0.306-0.035,0.447-0.105l6-3C26.786,44.725,27,44.379,27,44z M25,40v3.382l-4,2V40c0-0.321-0.154-0.623-0.414-0.811  L5.093,28H11v-2H3v-3h40v3.489L25.414,39.189C25.154,39.377,25,39.679,25,40z">
  </path>
  <rect x="13" y="26" width="2" height="2"></rect>
  <rect x="17" y="26" width="2" height="2"></rect>
  <rect x="21" y="26" width="2" height="2"></rect>
  <path
    d="M53,43c-5.514,0-10,4.486-10,10s4.486,10,10,10s10-4.486,10-10S58.514,43,53,43z M53,61c-4.411,0-8-3.589-8-8s3.589-8,8-8  s8,3.589,8,8S57.411,61,53,61z">
  </path>
  <path
    d="M39.707,49.293l-1.414,1.414L39.586,52H28c-1.654,0-3-1.346-3-3v-2h-2v2c0,2.757,2.243,5,5,5h11.586l-1.293,1.293  l1.414,1.414l3-3C42.902,53.512,43,53.256,43,53s-0.098-0.512-0.293-0.707L39.707,49.293z">
  </path>
  <path
    d="M53,50c0.552,0,1,0.449,1,1h2c0-1.302-0.839-2.402-2-2.816V47h-2v1.184c-1.161,0.414-2,1.514-2,2.816c0,1.654,1.346,3,3,3  c0.552,0,1,0.449,1,1s-0.448,1-1,1s-1-0.449-1-1h-2c0,1.302,0.839,2.402,2,2.816V59h2v-1.184c1.161-0.414,2-1.514,2-2.816  c0-1.654-1.346-3-3-3c-0.552,0-1-0.449-1-1S52.448,50,53,50z">
  </path>
</svg>