<?xml version="1.0" encoding="utf-8"?>
<!-- Generator: Adobe Illustrator 24.1.2, SVG Export Plug-In . SVG Version: 6.00 Build 0)  -->
<svg version="1.1" id="Layer_1" xmlns="http://www.w3.org/2000/svg" xmlns:xlink="http://www.w3.org/1999/xlink" x="0px" y="0px"
	 viewBox="0 0 392.5 391.4" style="enable-background:new 0 0 392.5 391.4;" xml:space="preserve">
<g>
	<path d="M245.6,28.4h-125V11.5c0-6.3,5.2-11.5,11.5-11.5h101.9c6.3,0,11.5,5.2,11.5,11.5L245.6,28.4z"/>
	<path d="M392.5,116.5v56.4h-23.1v-17l-71.1,70.6l-4.6,4.6l-4.6,4.6l-16.6,16.4l-36-46.3l-93,82.9l-15.4-17.3L239.5,172l35.1,45.2
		L289,203l9.3-9.2l54.6-54.3h-16.8v-23.1L392.5,116.5z"/>
	<path d="M361,372.9V246.2h-45.2v126.7h-17.5V246l-9.3,9.2l-6.8,6.7l-11.1,11.1l-9.7-12.3L234.6,226l-81.9,73l-10.4,9.3l-9.3-10.4
		l-24.7-27.6l10.4-9.3l111.5-99.3l11.1-9.9l9.1,11.7l25.5,32.8l13-12.9l9.3-9.2l0-120.5c0-6.3-5.2-11.5-11.5-11.5H88.7
		c-6.3,0-11.5,5.2-11.5,11.5v319.1H63.3V100.7H30c-6.3,0-11.5,5.2-11.5,11.5v260.7H0v18.5h391v-18.5L361,372.9L361,372.9z
		 M198.8,80.9h35.6v13.9h-35.6V80.9z M198.8,133h35.6v13.9h-35.6V133z M131.9,80.9h35.6v13.9h-35.6V80.9z M131.9,133h35.6v13.9
		h-35.6V133z M131.9,185.1h35.6V199h-35.6V185.1z M191.6,372.9h-45.2V334h45.2V372.9z M276.3,372.9h-45.2v-79.4h45.2V372.9z"/>
</g>
</svg>
