<svg width="95.209mm" height="94.987mm" version="1.1" viewBox="0 0 95.209 94.987" xmlns="http://www.w3.org/2000/svg">
 <g transform="translate(-59.68 -87.017)">
  <path d="m76.978 113.35a8.9297 8.9297 0 0 1 8.6808-9.1496 8.9297 8.9297 0 0 1 9.1717 8.6574 8.9297 8.9297 0 0 1-8.634 9.1938 8.9297 8.9297 0 0 1-9.2158-8.6105" stroke-opacity="0"/>
  <path d="m68.779 91.463c-2.6846-0.51634-5.2176 2.3298-4.6426 4.9414-0.02995 12.695-0.0599 25.389-0.08984 38.084 14.357 14.389 28.715 28.777 43.072 43.166 14.473-14.436 28.947-28.872 43.42-43.309-14.363-14.326-28.725-28.652-43.088-42.979-12.891 0.0319-25.781 0.0638-38.672 0.0957z" fill="none" stroke="#000" stroke-linejoin="round" stroke-width="8.7"/>
 </g>
</svg>
