<?xml version="1.0" encoding="utf-8"?>
<!-- Generator: Adobe Illustrator 24.1.2, SVG Export Plug-In . SVG Version: 6.00 Build 0)  -->
<svg version="1.1" id="Layer_1" xmlns="http://www.w3.org/2000/svg" xmlns:xlink="http://www.w3.org/1999/xlink" x="0px" y="0px"
	 viewBox="0 0 200.6 179" style="enable-background:new 0 0 200.6 179;" xml:space="preserve">
<style type="text/css">
	.st0{fill:none;}
	.st1{fill:none;stroke:#000000;stroke-width:19;stroke-miterlimit:10;}
	.st2{fill:none;stroke:#000000;stroke-width:19;stroke-linecap:round;stroke-miterlimit:10;}
</style>
<image style="display:none;overflow:visible;" width="406" height="307" xlink:href="8C6C1F7B.jpg"  transform="matrix(0.7094 0 0 0.7094 -44.1698 -23.2775)">
</image>
<polyline class="st0" points="0.5,137.3 9.6,137.3 18.8,137.3 "/>
<line class="st0" x1="51.4" y1="25.1" x2="70.8" y2="25.1"/>
<polyline class="st0" points="100.3,0.3 100.3,9.6 100.3,18.9 "/>
<path class="st1" d="M100.3,9.6H70.1c-5,0-9,4-9,9v29.7"/>
<line class="st2" x1="63.2" y1="131.6" x2="63.2" y2="100.2"/>
<path class="st1" d="M100.8,169.5H177c7.7,0,14-6.3,14-14V81.7c0-0.3-0.1-0.5-0.3-0.7l-32.4-32.4c-0.2-0.2-0.4-0.3-0.7-0.3h-56.8h-1
	H43c-0.3,0-0.5,0.1-0.7,0.3L9.9,81c-0.2,0.2-0.3,0.4-0.3,0.7v73.8c0,7.7,6.3,14,14,14h76.2H100.8z"/>
<polyline class="st1" points="191,115.2 100.8,115.2 99.8,115.2 9.6,115.2 "/>
<path class="st1" d="M100.3,9.6h30.3c5,0,9,4,9,9v29.7"/>
<line class="st2" x1="140.5" y1="133.2" x2="140.5" y2="100"/>
</svg>
