<svg width="232.48mm" height="185.91mm" version="1.1" viewBox="0 0 232.48 185.91" xmlns="http://www.w3.org/2000/svg">
  <g transform="translate(10.407 -55.21)">
   <path d="m139.78 106.16v78.299a28.348 28.348 0 0 1 17.501-6.0482 28.348 28.348 0 0 1 27.032 19.81h13.699v-56.871l-35.19-35.19z" fill-opacity="0" stroke-linejoin="round" stroke-width="16.464"/>
   <g fill="none">
    <path transform="matrix(.26458 0 0 .26458 -10.407 55.21)" d="m99.645 63.686a36 36 0 0 0-35.959 36v401.34a36 36 0 0 0 36 36h31.229a107.14 107.14 0 0 1 101.94-74.172 107.14 107.14 0 0 1 101.94 74.172h159.09a36 36 0 0 0 36-36v-401.34a36 36 0 0 0-36-36h-394.2a36 36 0 0 0-0.041016 0z" stroke-width="68.032"/>
    <g>
     <path d="m184.69 207.15a24.712 24.712 0 0 1-24.712 24.712 24.712 24.712 0 0 1-24.712-24.712 24.712 24.712 0 0 1 24.712-24.712 24.712 24.712 0 0 1 24.712 24.712z" stroke-linejoin="round" stroke-width="13.844"/>
     <path d="m75.509 207.82a24.712 24.712 0 0 1-24.712 24.712 24.712 24.712 0 0 1-24.712-24.712 24.712 24.712 0 0 1 24.712-24.712 24.712 24.712 0 0 1 24.712 24.712z" stroke-linejoin="round" stroke-width="13.844"/>
     <path d="m142.68 146.96h56.394" stroke-width="11.4"/>
    </g>
   </g>
  </g>
 </svg>
 