<?xml version="1.0" encoding="utf-8"?>
<!-- Generator: Adobe Illustrator 24.1.2, SVG Export Plug-In . SVG Version: 6.00 Build 0)  -->
<svg version="1.1" id="Layer_1" xmlns="http://www.w3.org/2000/svg" xmlns:xlink="http://www.w3.org/1999/xlink" x="0px" y="0px"
	 viewBox="0 0 28.3 25.2" style="enable-background:new 0 0 28.3 25.2;" xml:space="preserve">
<g>
	<path d="M13.4,4c-0.2,0.2-0.4,0.3-0.5,0.5C9.3,8,5.8,11.5,2.2,15c-0.2,0.2-0.5,0.5-0.8,0.6c-0.4,0.2-1-0.1-1.2-0.5
		c-0.3-0.4-0.3-0.8,0-1.3c0.1-0.2,0.3-0.4,0.5-0.5c3.5-3.5,7-7,10.5-10.5c0.1-0.1,0.3-0.3,0.5-0.6c-0.3,0-0.5,0-0.7,0
		c-1,0-2.1,0-3.1,0c-0.3,0-0.7,0-1-0.2C6.5,2,6.3,1.4,6.4,0.9C6.5,0.4,6.9,0,7.5,0c2.4,0,4.7,0,7.1,0c0.7,0,1.1,0.5,1.1,1.2
		c0,2.3,0,4.6,0,6.9c0,0.7-0.4,1.2-1.1,1.3c-0.6,0-1.2-0.5-1.2-1.2c0-1.2,0-2.4,0-3.6C13.4,4.4,13.4,4.3,13.4,4z"/>
	<path d="M26,12.5c-1.3,0-2.3-1-2.3-2.3c0-1.3,1-2.3,2.3-2.3c1.3,0,2.3,1,2.3,2.3C28.3,11.5,27.3,12.5,26,12.5z"/>
	<path d="M13.4,20.6c1.3,0,2.3,1,2.3,2.3c0,1.3-1,2.3-2.3,2.3c-1.3,0-2.3-1.1-2.3-2.4C11.1,21.6,12.1,20.6,13.4,20.6z"/>
	<path d="M26,20.6c1.3,0,2.3,1,2.3,2.3c0,1.3-1,2.3-2.4,2.3c-1.3,0-2.3-1.1-2.3-2.4C23.7,21.6,24.8,20.6,26,20.6z"/>
	<path d="M19.7,12.5c-1.3,0-2.3-1-2.3-2.3c0-1.3,1-2.3,2.3-2.3c1.3,0,2.4,1,2.4,2.3C22,11.5,21,12.5,19.7,12.5z"/>
	<path d="M7.1,25.2c-1.3,0-2.3-1-2.3-2.3c0-1.3,1-2.3,2.3-2.3c1.3,0,2.4,1,2.4,2.3C9.4,24.1,8.4,25.2,7.1,25.2z"/>
	<path d="M19.7,20.6c1.3,0,2.4,1,2.3,2.3c0,1.3-1,2.3-2.3,2.3c-1.3,0-2.3-1-2.3-2.3C17.4,21.6,18.4,20.6,19.7,20.6z"/>
	<path d="M28.3,3.9c0,1.3-1,2.3-2.3,2.3c-1.3,0-2.3-1-2.3-2.3c0-1.3,1-2.3,2.3-2.3C27.3,1.6,28.3,2.6,28.3,3.9z"/>
	<path d="M13.4,14.3c1.3,0,2.3,1,2.3,2.3c0,1.3-1,2.3-2.3,2.3c-1.3,0-2.3-1.1-2.3-2.3C11.1,15.3,12.1,14.3,13.4,14.3z"/>
	<path d="M28.3,16.6c0,1.3-1.1,2.3-2.3,2.3c-1.3,0-2.3-1.1-2.3-2.4c0-1.3,1-2.3,2.3-2.3C27.4,14.3,28.4,15.3,28.3,16.6z"/>
	<path d="M19.7,14.3c1.4,0,2.3,1,2.3,2.3c0,1.3-1.1,2.3-2.3,2.3c-1.3,0-2.3-1.1-2.3-2.3C17.4,15.2,18.4,14.3,19.7,14.3z"/>
</g>
</svg>
