<?xml version="1.0" encoding="utf-8"?>
<!-- Generator: Adobe Illustrator 24.1.2, SVG Export Plug-In . SVG Version: 6.00 Build 0)  -->
<svg version="1.1" id="Layer_1" xmlns="http://www.w3.org/2000/svg" xmlns:xlink="http://www.w3.org/1999/xlink" x="0px" y="0px"
	 viewBox="0 0 24 24" style="enable-background:new 0 0 24 24;" xml:space="preserve">
<style type="text/css">
	.st0{fill:#43b843ff;}
</style>
<path d="M7.5,6.5C7.5,9,9.5,11,12,11s4.5-2,4.5-4.5S14.5,2,12,2S7.5,4,7.5,6.5z M20,21h1v-1c0-3.9-3.1-7-7-7h-4c-3.9,0-7,3.1-7,7v1
	H20z"/>
<g>
	<path class="st0" d="M10.3,6.8c-0.1,0-0.3,0-0.4-0.1c-0.1,0-0.3-0.1-0.4-0.1C9.5,6.6,9.4,6.5,9.3,6.5L9.6,6
		c0.1,0.1,0.2,0.2,0.3,0.2s0.3,0.1,0.4,0.1c0.1,0,0.3,0,0.3-0.1c0.1-0.1,0.1-0.1,0.1-0.3v0c0-0.1,0-0.1-0.1-0.2c0,0-0.1-0.1-0.2-0.1
		c-0.1,0-0.1,0-0.2-0.1c-0.1,0-0.2,0-0.3-0.1c-0.1,0-0.2-0.1-0.3-0.1S9.6,5.3,9.6,5.2C9.5,5.1,9.5,5,9.5,4.8v0
		c0-0.3,0.1-0.5,0.3-0.6c0.2-0.2,0.4-0.2,0.7-0.2c0.1,0,0.3,0,0.4,0.1s0.3,0.1,0.4,0.2l-0.2,0.5c-0.1-0.1-0.2-0.1-0.3-0.2
		c-0.1,0-0.2-0.1-0.3-0.1c-0.1,0-0.2,0-0.3,0.1S10,4.6,10,4.7v0c0,0.1,0,0.2,0.1,0.2c0,0,0.1,0.1,0.2,0.1c0.1,0,0.2,0,0.2,0.1
		c0.1,0,0.2,0,0.3,0.1s0.2,0.1,0.3,0.1s0.1,0.1,0.2,0.2c0,0.1,0.1,0.2,0.1,0.4v0c0,0.3-0.1,0.5-0.3,0.6S10.7,6.8,10.3,6.8z M10.1,4
		V3.6h0.5V4H10.1z M10.1,7.1V6.7h0.5v0.5H10.1z"/>
	<path class="st0" d="M13.7,6.8c-0.1,0-0.3,0-0.4-0.1S13.1,6.7,13,6.6s-0.2-0.1-0.2-0.2L13,6c0.1,0.1,0.2,0.2,0.3,0.2
		s0.3,0.1,0.4,0.1c0.2,0,0.3,0,0.3-0.1c0.1-0.1,0.1-0.1,0.1-0.3v0c0-0.1,0-0.1-0.1-0.2S14,5.7,14,5.7c-0.1,0-0.1,0-0.2-0.1
		c-0.1,0-0.2,0-0.3-0.1c-0.1,0-0.2-0.1-0.3-0.1C13.1,5.4,13,5.3,13,5.2c-0.1-0.1-0.1-0.2-0.1-0.4v0c0-0.3,0.1-0.5,0.3-0.6
		c0.2-0.2,0.4-0.2,0.7-0.2c0.1,0,0.3,0,0.4,0.1c0.1,0.1,0.3,0.1,0.4,0.2l-0.2,0.5c-0.1-0.1-0.2-0.1-0.3-0.2s-0.2-0.1-0.3-0.1
		c-0.1,0-0.2,0-0.3,0.1c-0.1,0.1-0.1,0.1-0.1,0.2v0c0,0.1,0,0.2,0.1,0.2c0,0,0.1,0.1,0.2,0.1c0.1,0,0.2,0,0.2,0.1
		c0.1,0,0.2,0,0.3,0.1c0.1,0,0.2,0.1,0.3,0.1s0.1,0.1,0.2,0.2s0.1,0.2,0.1,0.4v0c0,0.3-0.1,0.5-0.3,0.6S14,6.8,13.7,6.8z M13.5,4
		V3.6h0.5V4H13.5z M13.5,7.1V6.7h0.5v0.5H13.5z"/>
</g>
</svg>
