<svg version="1.1" id="Layer_1" xmlns="http://www.w3.org/2000/svg" xmlns:xlink="http://www.w3.org/1999/xlink" x="0px" y="0px"
	 viewBox="0 0 57.7 50" style="enable-background:new 0 0 57.7 50;" xml:space="preserve" fill="currentColor">
	<path d="M53.7,4v42H4V4H53.7 M55.8,0H2C0.9,0,0,0.9,0,2v46c0,1.1,0.9,2,2,2h53.8c1.1,0,2-0.9,2-2V2C57.7,0.9,56.8,0,55.8,0L55.8,0z"/>
	<path d="M41,4l12.1,21L41,46l-24.2,0L4.7,25L16.7,4L41,4 M43.3,0L14.4,0L0,25l14.5,25l28.8,0l14.4-25L43.3,0L43.3,0z"/>
	<path d="M28.9,22.7c-1.3,0-2.3,1-2.3,2.3s1,2.3,2.3,2.3s2.3-1,2.3-2.3S30.1,22.7,28.9,22.7L28.9,22.7z"/>
</svg>
