<svg version="1.1" id="Layer_1" xmlns="http://www.w3.org/2000/svg" xmlns:xlink="http://www.w3.org/1999/xlink" x="0px" y="0px"
	 viewBox="0 0 23.1 21.4" style="enable-background:new 0 0 23.1 21.4;" xml:space="preserve" fill="currentColor">
<path d="M22.9,3.4c-0.2-0.5-0.3-0.7-0.7-1s-1.6-0.5-2.3-0.8s-1.4-0.5-2.1-0.7s-1.6-0.4-2.2-0.6S14.4,0.1,13.7,0c-0.6,0-1.5-0.1-2,0
	c-0.5,0-1.3,0.1-2,0.1c-0.7,0-1.2,0-1.9,0s-0.6-0.1-1-0.1c-0.5,0-0.4,0.3-0.4,0.3s0.1,1.1,0.1,1.1L1.6,4.3c-0.4,0-0.7,0.1-0.8,0.2
	C0.6,4.5,0.3,4.7,0.1,5.1C0,5.4,0,5.7,0,5.7C0.1,6,0.2,6.2,0.3,6.3c0.1,0.1,0.2,0.2,0.4,0.3c0,0,0,0,0,0v14.8h1.8V6.9c0,0,0,0,0,0
	L7,7.7c0,0,0,1.5,0.2,1.7c0.1,0.1,0.7,0,0.7,0S8.5,9.2,9,9.1c0.5-0.1,1.4-0.5,2-0.7s1.9-0.7,2.4-0.8s1.2-0.3,1.5-0.4
	C15.2,7.1,16,7,16.4,7c0.4,0,1.9,0,1.9,0s1.5,0,1.9,0c0.4,0,1.4,0,1.4,0s0.5-0.1,0.6-0.3c0.1-0.2,0.6-0.6,0.8-1.1
	C23,5,23,4.7,23,4.4C23.1,4,23.1,3.9,22.9,3.4z M3.2,5.6c0-0.2,0-0.4-0.1-0.6C3,5,3,4.9,2.9,4.8c0,0,0,0,0,0
	c0.2,0.3,0.2,0.2,0.2,0.2L6.6,3l0.3,3.2L3.2,5.6z M11.8,6.9c-0.4,0.1-0.9,0.3-1.3,0.5c-0.4,0.1-0.8,0.3-0.8,0.3L9.2,1.3l1.6-0.1
	L12,1.2l0.3,5.5C12.3,6.7,12.2,6.8,11.8,6.9z M17.6,5.7c0,0-0.2,0-0.6,0c-0.3,0-1,0.1-1.3,0.1c-0.3,0-0.8,0.1-0.8,0.1l-0.1-4.6
	l2.9,0.7L17.6,5.7z M22.4,4.6c0,0.2-0.1,0.7-0.2,0.9S22,5.9,21.9,6.1s-0.3,0.3-0.5,0.3s-0.3,0-0.4-0.1c-0.1-0.1-0.3-0.4-0.4-0.7
	S20.6,5,20.6,4.7s0.1-0.6,0.1-0.9C20.8,3.5,21,3.2,21.1,3c0.1-0.1,0.3-0.2,0.5-0.2c0,0,0.3,0,0.4,0.1c0.1,0.1,0.4,0.5,0.4,0.8
	C22.5,4,22.4,4.4,22.4,4.6z"/>
</svg>
