<svg version="1.1" xmlns="http://www.w3.org/2000/svg" xmlns:xlink="http://www.w3.org/1999/xlink" x="0px" y="0px" viewBox="0 0 27.4 27.6" style="enable-background:new 0 0 27.4 27.6;" xml:space="preserve">
<path fill="currentColor" d="M17,26c-1.2,0-2.1-0.3-2.7-1c-0.6-0.7-1-1.7-1.3-3.1l-1-4.1h-0.3L9.4,22c-0.6,1.1-1.3,2-2,2.8c-0.7,0.8-1.8,1.1-3.1,1.1
  c-0.9,0-1.6-0.2-2-0.7s-0.6-1-0.6-1.6c0-0.5,0.2-1,0.5-1.4c0.3-0.4,0.8-0.6,1.3-0.6c0.4,0,0.9,0.1,1.4,0.2c0.5,0.2,0.9,0.2,1.2,0.2
  c0.3,0,0.6-0.1,0.9-0.4c0.3-0.2,0.8-0.8,1.4-1.6l2.8-4.5l-1-3.7c-0.3-1.2-0.7-2.1-1-2.7c-0.3-0.6-0.8-1-1.3-1.2
  C7.4,8,6.7,7.9,5.8,7.9c-0.3,0-0.5,0-0.8,0C4.8,7.9,4.6,8,4.6,8V6.4l5.7-0.7h2.4c0.8,1.1,1.5,2.7,2,4.8l0.4,2.1h0.2l1.8-3.2
  c0.6-1.1,1.4-2.1,2.2-2.9c0.8-0.8,1.9-1.2,3.2-1.2c0.9,0,1.5,0.2,1.9,0.6c0.4,0.4,0.5,0.9,0.5,1.6c0,0.6-0.2,1-0.6,1.5
  c-0.4,0.4-0.9,0.6-1.5,0.6c-0.5,0-0.9-0.1-1.3-0.3c-0.3-0.2-0.7-0.3-1.1-0.3c-0.5,0-0.9,0.1-1.2,0.4c-0.3,0.3-0.7,0.7-1,1.3
  l-2.4,3.8l0.9,3c0.5,1.6,0.9,2.8,1.3,3.5c0.4,0.7,0.8,1,1.3,1c0.5,0,1-0.2,1.5-0.6c0.4-0.4,0.9-1,1.4-1.7l1.1,0.8
  c-0.4,0.6-0.9,1.3-1.5,2.1c-0.6,0.8-1.3,1.5-2.1,2.2C18.9,25.6,18,26,17,26z"/>
<line stroke="currentColor" stroke-width="2" class="st0" x1="4.4" y1="2.7" x2="24.9" y2="2.7"/>
</svg>
