<svg version="1.1" viewBox="0 0 37.58 31.534" xmlns="http://www.w3.org/2000/svg">
  <g transform="translate(-84.266 -84.883)">
    <g fill="none" strokeLinecap="round" strokeWidth=".965">
      <path d="m85.026 93.162c0.56696-0.33073 1.4647-0.85045 2.1261-0.85045 0.66146 0 2.6458 0.09449 3.638 0.28348 0.99219 0.18899 2.1261 0.51972 2.3151 0.51972s1.8426-0.42522 2.0316-0.66146c0.18899-0.23624 0.75595-1.6064 1.1812-2.2679 0.42522-0.66146 3.4963-3.0711 3.827-3.3073 0.33073-0.23624 1.7481-1.5119 2.5041-1.5119s2.6931 0.61421 3.4018 1.1812c0.7087 0.56696 2.0789 1.4647 2.6931 2.0789 0.61421 0.61421 2.1261 2.6458 2.3151 3.1656s1.8426 1.1812 2.5041 1.2757c0.66146 0.09449 2.4096-0.66146 3.4963-0.70871 1.0867-0.04725 3.9215 0.04725 4.2522 0.23624 0.33073 0.18899-0.99218 1.7009-1.3702 2.1261-0.37797 0.42522-1.9844 2.3624-2.6458 2.8348s-2.9766 1.7009-3.5908 1.7954c-0.61421 0.09449-1.2757-0.04725-1.7009 0.14174-0.42522 0.18899-0.89769 0.99218-1.1812 1.7009-0.28348 0.7087-0.61421 1.3229-1.4174 1.7954s-2.7403 1.2757-3.0238 1.5119c-0.28348 0.23623-2.2678 1.7009-2.8821 1.7009s-2.8821-1.1339-3.2128-1.5119c-0.33073-0.37798-1.7009-1.1812-2.4096-1.5592-0.7087-0.37798-2.0316-1.8899-2.3151-2.3151-0.28348-0.42522-0.51972-1.0394-0.94494-1.1339-0.42522-0.09449-2.2206-0.09449-2.5513-0.33073-0.33073-0.23624-2.0789-1.0867-2.7403-1.6536-0.66146-0.56696-4.2995-4.5357-4.2995-4.5357z" />
      <path d="m86.632 115.89s0.18899-4.016 0.47247-5.2444c0.28348-1.2284 1.1339-3.4963 1.7954-4.2995s3.1656-2.5513 3.8743-2.8821c0.7087-0.33072 4.2995-0.80319 4.2995-0.80319" />
      <path d="m120.13 115.93s-0.33073-3.4963-0.51972-4.8192c-0.18899-1.3229-0.0472-2.3624-0.66146-3.5435-0.61421-1.1812-3.3073-3.4018-4.1577-3.7798-0.85044-0.37797-2.5041-0.94494-3.449-1.1812-0.94494-0.23624-1.0394-0.33073-1.0394-0.33073" />
      <path d="m93.955 103.32s0.14174 0.66146 0.56696 1.3229 8.41 7.2288 8.6934 7.276c0.28349 0.0472 8.0792-5.8114 8.6462-6.3311s0.94494-1.3229 0.99219-1.7954c0.0472-0.47247 0-0.8032 0-0.8032" />
      <path d="m88.806 93.965s0.61421-0.14174 0.89769 0.09449c0.28348 0.23624 1.0867 0.47247 1.6064 0.75595 0.51972 0.28348 1.3702 0.85045 1.7481 0.85045s0.89769-0.09449 1.1812 0.14174c0.28348 0.23624 0.33073 1.6536 0.33073 1.6536" />
      <path d="m117.77 93.908s-0.61421-0.14174-0.8977 0.09449c-0.28348 0.23624-1.0867 0.47247-1.6064 0.75595-0.51971 0.28348-1.3702 0.85045-1.7481 0.85045-0.37797 0-0.89769-0.09449-1.1812 0.14174-0.28348 0.23624-0.33073 1.6536-0.33073 1.6536" />
      <path d="m100.38 89.098s0.0945 1.2757 0.33073 1.7481c0.23624 0.47247 2.5986 3.638 2.5986 3.638s2.1734-2.8821 2.3624-3.4018c0.18899-0.51972 0.8032-2.0789 0.8032-2.0789" />
      <path d="m103.45 87.161v3.3545l5.4334 1.6536" />
      <path d="m103.45 90.516-5.3389 1.6536" />
      <path d="m97.121 95.524c0.42522-0.33073 0.42522-0.47247 1.2284-0.66146 0.8032-0.18899 2.7403 0.09449 3.3545 0" />
      <path d="m109.48 95.35c-0.42523-0.33073-0.42523-0.47247-1.2284-0.66146-0.8032-0.18899-2.7403 0.0945-3.3545 0" />
      <path d="m101.09 101.9c0.85044 0.51972 1.4174 0.8977 1.9371 0.94494 0.51971 0.0473 2.0789-0.47247 2.4096-0.7087" />
      <path d="m97.641 97.225c0.8032-0.42522 1.4174-0.8032 1.9844-0.85045 0.56696-0.04725 1.7009 0.14174 2.0789 0.47247" />
      <path d="m109.07 97.204c-0.8032-0.42522-1.4174-0.8032-1.9844-0.85045-0.56696-0.04725-1.7009 0.14174-2.0789 0.47247" />
    </g>
    <path d="m99.205 97.004a1.2027 0.30068 0 0 1 1.1692-0.30808 1.2027 0.30068 0 0 1 1.2353 0.29151 1.2027 0.30068 0 0 1-1.1629 0.30957 1.2027 0.30068 0 0 1-1.2412-0.28993" strokeWidth="0" />
    <path d="m105.42 97.004a1.2027 0.30068 0 0 1 1.1692-0.30808 1.2027 0.30068 0 0 1 1.2353 0.29151 1.2027 0.30068 0 0 1-1.1629 0.30957 1.2027 0.30068 0 0 1-1.2412-0.28993" strokeWidth="0" />
  </g>
</svg>
